<svg width="15" height="18" viewBox="0 0 15 18" fill="none" xmlns="http://www.w3.org/2000/svg">
<path d="M7.49582 7.36159C6.68501 7.36159 5.8742 7.21851 5.10314 6.94029C4.95455 6.88647 4.8334 6.77587 4.76633 6.63277C4.69925 6.48968 4.69173 6.32581 4.74543 6.17717C4.86466 5.86716 5.20648 5.70817 5.51649 5.81946C6.7963 6.28051 8.2033 6.28051 9.48311 5.81946C9.55727 5.79024 9.63654 5.77619 9.71622 5.77813C9.79591 5.78008 9.8744 5.79799 9.94705 5.83079C10.0197 5.8636 10.085 5.91064 10.1392 5.96914C10.1933 6.02764 10.2352 6.0964 10.2623 6.17135C10.2894 6.24631 10.3012 6.32595 10.297 6.40555C10.2928 6.48515 10.2727 6.5631 10.2379 6.63479C10.203 6.70648 10.1541 6.77045 10.0941 6.82293C10.0341 6.8754 9.96421 6.91531 9.88851 6.94029C9.11745 7.21851 8.30664 7.36159 7.49582 7.36159Z" fill="#101010"/>
<path d="M13.1161 17.2729C12.7107 17.2729 12.2655 17.1536 11.8362 16.9072L7.95707 14.753C7.72655 14.6258 7.27345 14.6258 7.04293 14.753L3.16375 16.9072C2.37679 17.3444 1.57393 17.3921 0.961844 17.0264C0.349762 16.6687 0 15.9454 0 15.0471V3.8468C0 1.82772 1.64547 0.182251 3.66455 0.182251H11.3355C13.3545 0.182251 15 1.82772 15 3.8468V15.0471C15 15.9454 14.6502 16.6687 14.0382 17.0264C13.7599 17.1934 13.442 17.2729 13.1161 17.2729ZM7.49603 13.4652C7.86963 13.4652 8.23529 13.5447 8.52941 13.7117L12.4086 15.8659C12.814 16.0964 13.1876 16.1441 13.4261 16.001C13.6645 15.8579 13.7997 15.5161 13.7997 15.0471V3.8468C13.7997 2.4875 12.6868 1.37462 11.3275 1.37462H3.66455C3.00953 1.37672 2.38194 1.63785 1.91877 2.10102C1.4556 2.56419 1.19447 3.19178 1.19237 3.8468V15.0471C1.19237 15.5161 1.3275 15.8659 1.56598 16.001C1.80445 16.1361 2.17011 16.0964 2.58347 15.8659L6.46264 13.7117C6.75676 13.5447 7.12242 13.4652 7.49603 13.4652Z" fill="#101010"/>
<path d="M13.1161 17.2729C12.7107 17.2729 12.2655 17.1536 11.8362 16.9072L7.95707 14.753C7.72655 14.6258 7.27345 14.6258 7.04293 14.753L3.16375 16.9072C2.37679 17.3444 1.57393 17.3921 0.961844 17.0264C0.349762 16.6687 0 15.9454 0 15.0471V3.8468C0 1.82772 1.64547 0.182251 3.66455 0.182251H11.3355C13.3545 0.182251 15 1.82772 15 3.8468V15.0471C15 15.9454 14.6502 16.6687 14.0382 17.0264C13.7599 17.1934 13.442 17.2729 13.1161 17.2729ZM7.49603 13.4652C7.86963 13.4652 8.23529 13.5447 8.52941 13.7117L12.4086 15.8659C12.814 16.0964 13.1876 16.1441 13.4261 16.001C13.6645 15.8579 13.7997 15.5161 13.7997 15.0471V3.8468C13.7997 2.4875 12.6868 1.37462 11.3275 1.37462H3.66455C3.00953 1.37672 2.38194 1.63785 1.91877 2.10102C1.4556 2.56419 1.19447 3.19178 1.19237 3.8468V15.0471C1.19237 15.5161 1.3275 15.8659 1.56598 16.001C1.80445 16.1361 2.17011 16.0964 2.58347 15.8659L6.46264 13.7117C6.75676 13.5447 7.12242 13.4652 7.49603 13.4652Z" fill="#101010"/>
</svg>
