<svg width="32" height="32" viewBox="0 0 32 32" fill="none" xmlns="http://www.w3.org/2000/svg">
<rect width="32" height="32" rx="8" fill="white"/>
<path d="M19.0419 22C18.4112 22 17.747 21.8493 17.0605 21.5591C16.3907 21.2744 15.7153 20.8837 15.0567 20.4093C14.4037 19.9293 13.773 19.3935 13.1758 18.8074C12.5842 18.2102 12.0484 17.5795 11.574 16.9321C11.094 16.2623 10.7088 15.5926 10.4353 14.9451C10.1451 14.253 10 13.5833 10 12.9526C10 12.5172 10.0781 12.1042 10.2288 11.7191C10.3851 11.3228 10.6363 10.9544 10.9767 10.6363C11.4065 10.2121 11.8977 10 12.4223 10C12.64 10 12.8633 10.0502 13.053 10.1395C13.2707 10.24 13.4549 10.3907 13.5888 10.5916L14.8837 12.4167C15.0009 12.5786 15.0902 12.7349 15.1516 12.8912C15.2242 13.0586 15.2633 13.226 15.2633 13.3879C15.2633 13.6 15.2019 13.8065 15.0847 14.0019C14.9821 14.1762 14.8563 14.3358 14.7107 14.4763L14.3312 14.8726C14.3367 14.8893 14.3423 14.9005 14.3479 14.9116C14.4149 15.0288 14.5488 15.2298 14.8056 15.5312C15.0791 15.8437 15.3358 16.1284 15.5926 16.3907C15.9219 16.7144 16.1953 16.9712 16.4521 17.1833C16.7702 17.4512 16.9767 17.5851 17.0995 17.6465L17.0884 17.6744L17.4958 17.2726C17.6688 17.0995 17.8363 16.9712 17.9981 16.8874C18.3051 16.6977 18.6958 16.6642 19.0865 16.826C19.2316 16.8874 19.3879 16.9712 19.5553 17.0884L21.4084 18.4056C21.6149 18.5451 21.7656 18.7237 21.8549 18.9358C21.9386 19.1479 21.9777 19.3433 21.9777 19.5386C21.9777 19.8065 21.9163 20.0744 21.7991 20.3256C21.6819 20.5767 21.5367 20.7944 21.3526 20.9953C21.0344 21.347 20.6884 21.5981 20.2865 21.76C19.9014 21.9163 19.4828 22 19.0419 22ZM12.4223 10.8372C12.1153 10.8372 11.8307 10.9712 11.5572 11.2391C11.3005 11.4791 11.1219 11.7414 11.0102 12.026C10.893 12.3163 10.8372 12.6233 10.8372 12.9526C10.8372 13.4716 10.96 14.0353 11.2056 14.6158C11.4567 15.2074 11.8084 15.8214 12.2549 16.4353C12.7014 17.0493 13.2093 17.6465 13.7674 18.2102C14.3256 18.7628 14.9284 19.2763 15.5479 19.7284C16.1507 20.1693 16.7702 20.5265 17.3842 20.7833C18.3386 21.1907 19.2316 21.2856 19.9684 20.9786C20.253 20.8614 20.5042 20.6828 20.733 20.426C20.8614 20.2865 20.9619 20.1358 21.0456 19.9572C21.1126 19.8177 21.146 19.6726 21.146 19.5274C21.146 19.4381 21.1293 19.3488 21.0847 19.2484C21.049 19.1792 20.9949 19.1213 20.9284 19.0809L19.0753 17.7637C18.9637 17.6856 18.8633 17.6298 18.7684 17.5907C18.6456 17.5405 18.5953 17.4902 18.4056 17.6074C18.294 17.6633 18.1935 17.747 18.0819 17.8586L17.6577 18.2772C17.44 18.4893 17.1051 18.5395 16.8484 18.4447L16.6977 18.3777C16.4688 18.2549 16.2009 18.0651 15.9051 17.814C15.6372 17.5851 15.347 17.3172 14.9953 16.9712C14.7219 16.6921 14.4484 16.3963 14.1637 16.067C13.9014 15.76 13.7116 15.4977 13.5944 15.28L13.5274 15.1126C13.494 14.9842 13.4828 14.9116 13.4828 14.8335C13.4828 14.6326 13.5553 14.454 13.6949 14.3144L14.1135 13.8791C14.2251 13.7674 14.3088 13.6614 14.3647 13.5665C14.4093 13.494 14.426 13.4326 14.426 13.3767C14.426 13.3321 14.4093 13.2651 14.3814 13.1981C14.3423 13.1088 14.2809 13.0084 14.2028 12.9023L12.9079 11.0716C12.8557 10.9966 12.7844 10.9369 12.7014 10.8986C12.6121 10.8595 12.5172 10.8372 12.4223 10.8372ZM17.0884 17.68L16.9991 18.0595L17.1498 17.6688C17.1219 17.6633 17.0995 17.6688 17.0884 17.68ZM19.6279 14.7442C19.3991 14.7442 19.2093 14.5544 19.2093 14.3256C19.2093 14.1247 19.0084 13.706 18.6735 13.3488C18.3442 12.9972 17.9814 12.7907 17.6744 12.7907C17.4456 12.7907 17.2558 12.6009 17.2558 12.3721C17.2558 12.1433 17.4456 11.9535 17.6744 11.9535C18.2158 11.9535 18.7851 12.2437 19.2819 12.774C19.7451 13.2707 20.0465 13.8791 20.0465 14.3256C20.0465 14.5544 19.8567 14.7442 19.6279 14.7442ZM21.5814 14.7442C21.3526 14.7442 21.1628 14.5544 21.1628 14.3256C21.1628 12.4 19.6 10.8372 17.6744 10.8372C17.4456 10.8372 17.2558 10.6474 17.2558 10.4186C17.2558 10.1898 17.4456 10 17.6744 10C20.0577 10 22 11.9423 22 14.3256C22 14.5544 21.8102 14.7442 21.5814 14.7442Z" fill="#101010"/>
</svg>
