<svg width="140" height="16" viewBox="0 0 140 16" fill="none" xmlns="http://www.w3.org/2000/svg">
<path d="M14.1887 5.51714L10.2215 4.94058L8.4481 1.34527C8.39966 1.24683 8.31998 1.16714 8.22154 1.11871C7.97466 0.996832 7.67466 1.09839 7.55123 1.34527L5.77779 4.94058L1.8106 5.51714C1.70123 5.53277 1.60123 5.58433 1.52466 5.66246C1.4321 5.75759 1.3811 5.88558 1.38286 6.0183C1.38461 6.15102 1.43899 6.27762 1.53404 6.37027L4.40435 9.16871L3.72623 13.1203C3.71032 13.2122 3.7205 13.3067 3.75559 13.3932C3.79068 13.4796 3.84929 13.5545 3.92477 13.6093C4.00025 13.6641 4.08958 13.6967 4.18263 13.7033C4.27568 13.71 4.36873 13.6904 4.45123 13.6468L7.99966 11.7812L11.5481 13.6468C11.645 13.6984 11.7575 13.7156 11.8653 13.6968C12.1372 13.65 12.32 13.3921 12.2731 13.1203L11.595 9.16871L14.4653 6.37027C14.5434 6.29371 14.595 6.19371 14.6106 6.08433C14.6528 5.81089 14.4622 5.55777 14.1887 5.51714Z" fill="#FEC30D"/>
<path d="M25.5215 8.95898V10.084H19.3691L19.3223 9.23438L23.002 3.46875H24.1328L22.9082 5.56641L20.793 8.95898H25.5215ZM24.4551 3.46875V12H23.043V3.46875H24.4551ZM26.6055 11.2969C26.6055 11.0781 26.6797 10.8945 26.8281 10.7461C26.9766 10.5938 27.1777 10.5176 27.4316 10.5176C27.6895 10.5176 27.8906 10.5938 28.0352 10.7461C28.1836 10.8945 28.2578 11.0781 28.2578 11.2969C28.2578 11.5156 28.1836 11.6992 28.0352 11.8477C27.8906 11.9961 27.6895 12.0703 27.4316 12.0703C27.1777 12.0703 26.9766 11.9961 26.8281 11.8477C26.6797 11.6992 26.6055 11.5156 26.6055 11.2969ZM30.9414 10.8867H31.0586C31.5977 10.8867 32.0469 10.8164 32.4062 10.6758C32.7695 10.5312 33.0586 10.332 33.2734 10.0781C33.4883 9.82422 33.6426 9.52539 33.7363 9.18164C33.8301 8.83789 33.877 8.46484 33.877 8.0625V6.5918C33.877 6.24414 33.8398 5.93945 33.7656 5.67773C33.6953 5.41211 33.5938 5.19141 33.4609 5.01562C33.332 4.83594 33.1816 4.70117 33.0098 4.61133C32.8418 4.52148 32.6602 4.47656 32.4648 4.47656C32.25 4.47656 32.0566 4.52539 31.8848 4.62305C31.7168 4.7168 31.5742 4.84766 31.457 5.01562C31.3438 5.17969 31.2559 5.37305 31.1934 5.5957C31.1348 5.81445 31.1055 6.04883 31.1055 6.29883C31.1055 6.5332 31.1328 6.75977 31.1875 6.97852C31.2461 7.19336 31.332 7.38477 31.4453 7.55273C31.5586 7.7207 31.7012 7.85352 31.873 7.95117C32.0449 8.04883 32.2461 8.09766 32.4766 8.09766C32.6953 8.09766 32.8965 8.05664 33.0801 7.97461C33.2637 7.88867 33.4238 7.77344 33.5605 7.62891C33.6973 7.48438 33.8047 7.32227 33.8828 7.14258C33.9609 6.96289 34.0039 6.7793 34.0117 6.5918L34.5508 6.75586C34.5508 7.05273 34.4883 7.3457 34.3633 7.63477C34.2422 7.91992 34.0723 8.18164 33.8535 8.41992C33.6387 8.6543 33.3867 8.8418 33.0977 8.98242C32.8125 9.12305 32.502 9.19336 32.166 9.19336C31.7598 9.19336 31.4004 9.11719 31.0879 8.96484C30.7793 8.80859 30.5215 8.59766 30.3145 8.33203C30.1113 8.06641 29.959 7.76172 29.8574 7.41797C29.7559 7.07422 29.7051 6.71289 29.7051 6.33398C29.7051 5.92383 29.7676 5.53906 29.8926 5.17969C30.0176 4.82031 30.1992 4.50391 30.4375 4.23047C30.6758 3.95313 30.9648 3.73828 31.3047 3.58594C31.6484 3.42969 32.0371 3.35156 32.4707 3.35156C32.9316 3.35156 33.3359 3.44141 33.6836 3.62109C34.0312 3.80078 34.3242 4.04883 34.5625 4.36523C34.8008 4.68164 34.9805 5.04883 35.1016 5.4668C35.2227 5.88477 35.2832 6.33398 35.2832 6.81445V7.3125C35.2832 7.81641 35.2383 8.30273 35.1484 8.77148C35.0586 9.23633 34.9121 9.66797 34.709 10.0664C34.5098 10.4609 34.2461 10.8086 33.918 11.1094C33.5938 11.4062 33.1953 11.6387 32.7227 11.8066C32.2539 11.9707 31.7031 12.0527 31.0703 12.0527H30.9414V10.8867ZM40.416 3.46875L37.0938 12.7324H35.9863L39.3145 3.46875H40.416ZM42.7949 8.0332L41.6699 7.75781L42.1328 3.46875H46.7324V4.66406H43.3047L43.0703 6.75586C43.2031 6.67773 43.3867 6.60156 43.6211 6.52734C43.8555 6.44922 44.123 6.41016 44.4238 6.41016C44.8262 6.41016 45.1855 6.47656 45.502 6.60938C45.8223 6.73828 46.0938 6.92773 46.3164 7.17773C46.5391 7.42383 46.709 7.72461 46.8262 8.08008C46.9434 8.43164 47.002 8.82812 47.002 9.26953C47.002 9.66406 46.9434 10.0332 46.8262 10.377C46.7129 10.7207 46.541 11.0234 46.3105 11.2852C46.0801 11.5469 45.7891 11.752 45.4375 11.9004C45.0898 12.0449 44.6777 12.1172 44.2012 12.1172C43.8457 12.1172 43.5039 12.0664 43.1758 11.9648C42.8516 11.8594 42.5605 11.7051 42.3027 11.502C42.0449 11.2949 41.8379 11.041 41.6816 10.7402C41.5254 10.4355 41.4355 10.0859 41.4121 9.69141H42.7949C42.8301 9.96875 42.9062 10.2051 43.0234 10.4004C43.1445 10.5918 43.3047 10.7383 43.5039 10.8398C43.7031 10.9414 43.9336 10.9922 44.1953 10.9922C44.4336 10.9922 44.6387 10.9512 44.8105 10.8691C44.9824 10.7832 45.125 10.6621 45.2383 10.5059C45.3555 10.3457 45.4414 10.1582 45.4961 9.94336C45.5547 9.72852 45.584 9.49023 45.584 9.22852C45.584 8.97852 45.5508 8.75 45.4844 8.54297C45.4219 8.33594 45.3262 8.15625 45.1973 8.00391C45.0723 7.85156 44.9141 7.73438 44.7227 7.65234C44.5312 7.56641 44.3105 7.52344 44.0605 7.52344C43.7246 7.52344 43.4668 7.57227 43.2871 7.66992C43.1113 7.76758 42.9473 7.88867 42.7949 8.0332ZM48.2734 11.2969C48.2734 11.0781 48.3477 10.8945 48.4961 10.7461C48.6445 10.5938 48.8457 10.5176 49.0996 10.5176C49.3574 10.5176 49.5586 10.5938 49.7031 10.7461C49.8516 10.8945 49.9258 11.0781 49.9258 11.2969C49.9258 11.5156 49.8516 11.6992 49.7031 11.8477C49.5586 11.9961 49.3574 12.0703 49.0996 12.0703C48.8457 12.0703 48.6445 11.9961 48.4961 11.8477C48.3477 11.6992 48.2734 11.5156 48.2734 11.2969ZM57.0332 7.01953V8.41406C57.0332 9.08203 56.9668 9.65234 56.834 10.125C56.7051 10.5938 56.5176 10.9746 56.2715 11.2676C56.0254 11.5605 55.7305 11.7754 55.3867 11.9121C55.0469 12.0488 54.666 12.1172 54.2441 12.1172C53.9082 12.1172 53.5957 12.0742 53.3066 11.9883C53.0215 11.9023 52.7637 11.7676 52.5332 11.584C52.3027 11.4004 52.1055 11.1641 51.9414 10.875C51.7812 10.582 51.6562 10.2324 51.5664 9.82617C51.4805 9.41992 51.4375 8.94922 51.4375 8.41406V7.01953C51.4375 6.34766 51.5039 5.78125 51.6367 5.32031C51.7695 4.85547 51.959 4.47852 52.2051 4.18945C52.4512 3.89648 52.7441 3.68359 53.084 3.55078C53.4277 3.41797 53.8105 3.35156 54.2324 3.35156C54.5723 3.35156 54.8848 3.39453 55.1699 3.48047C55.459 3.5625 55.7168 3.69336 55.9434 3.87305C56.1738 4.05273 56.3691 4.28711 56.5293 4.57617C56.6934 4.86133 56.8184 5.20703 56.9043 5.61328C56.9902 6.01562 57.0332 6.48438 57.0332 7.01953ZM55.6211 8.61328V6.80859C55.6211 6.46875 55.6016 6.16992 55.5625 5.91211C55.5234 5.65039 55.4648 5.42969 55.3867 5.25C55.3125 5.06641 55.2188 4.91797 55.1055 4.80469C54.9922 4.6875 54.8633 4.60352 54.7188 4.55273C54.5742 4.49805 54.4121 4.4707 54.2324 4.4707C54.0137 4.4707 53.8184 4.51367 53.6465 4.59961C53.4746 4.68164 53.3301 4.81445 53.2129 4.99805C53.0957 5.18164 53.0059 5.42383 52.9434 5.72461C52.8848 6.02148 52.8555 6.38281 52.8555 6.80859V8.61328C52.8555 8.95703 52.875 9.25977 52.9141 9.52148C52.9531 9.7832 53.0117 10.0078 53.0898 10.1953C53.168 10.3789 53.2617 10.5312 53.3711 10.6523C53.4844 10.7695 53.6133 10.8555 53.7578 10.9102C53.9062 10.9648 54.0684 10.9922 54.2441 10.9922C54.4668 10.9922 54.6641 10.9492 54.8359 10.8633C55.0078 10.7773 55.1523 10.6406 55.2695 10.4531C55.3867 10.2617 55.4746 10.0137 55.5332 9.70898C55.5918 9.4043 55.6211 9.03906 55.6211 8.61328Z" fill="#101010"/>
<path d="M63.8047 4.812C63.4527 4.82 63.2127 4.912 63.0847 5.088C62.9567 5.256 62.8927 5.52 62.8927 5.88V6.96H64.2727V7.764H62.8927V12H61.8247V7.764H60.9727V6.96H61.8247V5.796C61.8247 5.18 61.9727 4.736 62.2687 4.464C62.5647 4.192 63.0767 4.064 63.8047 4.08H64.2727V4.812H63.8047ZM68.1374 6.24C68.4334 6.24 68.6694 6.3 68.8454 6.42L68.6534 7.428C68.4854 7.324 68.2414 7.288 67.9214 7.32C67.5934 7.336 67.3054 7.472 67.0574 7.728C66.8174 7.976 66.6934 8.292 66.6854 8.676V12H65.6174V6.216H66.6854V7.404C67.0214 6.628 67.5054 6.24 68.1374 6.24ZM73.877 11.544C73.445 11.912 72.885 12.096 72.197 12.096C71.509 12.096 70.945 11.912 70.505 11.544C70.065 11.168 69.845 10.7 69.845 10.14V8.1C69.845 7.556 70.069 7.1 70.517 6.732C70.973 6.356 71.533 6.168 72.197 6.168C72.861 6.168 73.417 6.352 73.865 6.72C74.313 7.088 74.537 7.548 74.537 8.1V10.14C74.537 10.708 74.317 11.176 73.877 11.544ZM71.213 10.92C71.453 11.136 71.781 11.244 72.197 11.244C72.613 11.244 72.937 11.136 73.169 10.92C73.401 10.704 73.517 10.424 73.517 10.08V8.16C73.517 7.848 73.393 7.58 73.145 7.356C72.897 7.132 72.581 7.02 72.197 7.02C71.813 7.02 71.493 7.132 71.237 7.356C70.989 7.58 70.865 7.848 70.865 8.16V10.08C70.865 10.416 70.981 10.696 71.213 10.92ZM82.2778 6.168C82.9098 6.168 83.3978 6.328 83.7418 6.648C84.0858 6.96 84.2578 7.4 84.2578 7.968V12H83.2378V7.968C83.2378 7.648 83.1258 7.396 82.9018 7.212C82.6778 7.028 82.3858 6.936 82.0258 6.936C81.6658 6.936 81.3738 7.028 81.1498 7.212C80.9258 7.396 80.8138 7.648 80.8138 7.968V12H79.7938V7.968C79.7938 7.648 79.6818 7.396 79.4578 7.212C79.2338 7.028 78.9418 6.936 78.5818 6.936C78.2218 6.936 77.9298 7.028 77.7058 7.212C77.4898 7.396 77.3818 7.648 77.3818 7.968V12H76.3138V6.216H77.3818V6.804C77.7178 6.38 78.2058 6.168 78.8458 6.168C79.7338 6.168 80.3298 6.476 80.6338 7.092C80.7778 6.804 80.9938 6.58 81.2818 6.42C81.5778 6.252 81.9098 6.168 82.2778 6.168ZM87.4316 7.20117H88.2051C88.584 7.20117 88.8965 7.13867 89.1426 7.01367C89.3926 6.88477 89.5781 6.71094 89.6992 6.49219C89.8242 6.26953 89.8867 6.01953 89.8867 5.74219C89.8867 5.41406 89.832 5.13867 89.7227 4.91602C89.6133 4.69336 89.4492 4.52539 89.2305 4.41211C89.0117 4.29883 88.7344 4.24219 88.3984 4.24219C88.0938 4.24219 87.8242 4.30273 87.5898 4.42383C87.3594 4.54102 87.1777 4.70898 87.0449 4.92773C86.916 5.14648 86.8516 5.4043 86.8516 5.70117H85.7676C85.7676 5.26758 85.877 4.87305 86.0957 4.51758C86.3145 4.16211 86.6211 3.87891 87.0156 3.66797C87.4141 3.45703 87.875 3.35156 88.3984 3.35156C88.9141 3.35156 89.3652 3.44336 89.752 3.62695C90.1387 3.80664 90.4395 4.07617 90.6543 4.43555C90.8691 4.79102 90.9766 5.23438 90.9766 5.76562C90.9766 5.98047 90.9258 6.21094 90.8242 6.45703C90.7266 6.69922 90.5723 6.92578 90.3613 7.13672C90.1543 7.34766 89.8848 7.52148 89.5527 7.6582C89.2207 7.79102 88.8223 7.85742 88.3574 7.85742H87.4316V7.20117ZM87.4316 8.0918V7.44141H88.3574C88.9004 7.44141 89.3496 7.50586 89.7051 7.63477C90.0605 7.76367 90.3398 7.93555 90.543 8.15039C90.75 8.36523 90.8945 8.60156 90.9766 8.85938C91.0625 9.11328 91.1055 9.36719 91.1055 9.62109C91.1055 10.0195 91.0371 10.373 90.9004 10.6816C90.7676 10.9902 90.5781 11.252 90.332 11.4668C90.0898 11.6816 89.8047 11.8438 89.4766 11.9531C89.1484 12.0625 88.791 12.1172 88.4043 12.1172C88.0332 12.1172 87.6836 12.0645 87.3555 11.959C87.0312 11.8535 86.7441 11.7012 86.4941 11.502C86.2441 11.2988 86.0488 11.0508 85.9082 10.7578C85.7676 10.4609 85.6973 10.123 85.6973 9.74414H86.7812C86.7812 10.041 86.8457 10.3008 86.9746 10.5234C87.1074 10.7461 87.2949 10.9199 87.5371 11.0449C87.7832 11.166 88.0723 11.2266 88.4043 11.2266C88.7363 11.2266 89.0215 11.1699 89.2598 11.0566C89.502 10.9395 89.6875 10.7637 89.8164 10.5293C89.9492 10.2949 90.0156 10 90.0156 9.64453C90.0156 9.28906 89.9414 8.99805 89.793 8.77148C89.6445 8.54102 89.4336 8.37109 89.1602 8.26172C88.8906 8.14844 88.5723 8.0918 88.2051 8.0918H87.4316ZM97.9551 7.05469V8.35547C97.9551 9.05469 97.8926 9.64453 97.7676 10.125C97.6426 10.6055 97.4629 10.9922 97.2285 11.2852C96.9941 11.5781 96.7109 11.791 96.3789 11.9238C96.0508 12.0527 95.6797 12.1172 95.2656 12.1172C94.9375 12.1172 94.6348 12.0762 94.3574 11.9941C94.0801 11.9121 93.8301 11.7812 93.6074 11.6016C93.3887 11.418 93.2012 11.1797 93.0449 10.8867C92.8887 10.5938 92.7695 10.2383 92.6875 9.82031C92.6055 9.40234 92.5645 8.91406 92.5645 8.35547V7.05469C92.5645 6.35547 92.627 5.76953 92.752 5.29688C92.8809 4.82422 93.0625 4.44531 93.2969 4.16016C93.5312 3.87109 93.8125 3.66406 94.1406 3.53906C94.4727 3.41406 94.8438 3.35156 95.2539 3.35156C95.5859 3.35156 95.8906 3.39258 96.168 3.47461C96.4492 3.55273 96.6992 3.67969 96.918 3.85547C97.1367 4.02734 97.3223 4.25781 97.4746 4.54688C97.6309 4.83203 97.75 5.18164 97.832 5.5957C97.9141 6.00977 97.9551 6.49609 97.9551 7.05469ZM96.8652 8.53125V6.87305C96.8652 6.49023 96.8418 6.1543 96.7949 5.86523C96.752 5.57227 96.6875 5.32227 96.6016 5.11523C96.5156 4.9082 96.4062 4.74023 96.2734 4.61133C96.1445 4.48242 95.9941 4.38867 95.8223 4.33008C95.6543 4.26758 95.4648 4.23633 95.2539 4.23633C94.9961 4.23633 94.7676 4.28516 94.5684 4.38281C94.3691 4.47656 94.2012 4.62695 94.0645 4.83398C93.9316 5.04102 93.8301 5.3125 93.7598 5.64844C93.6895 5.98438 93.6543 6.39258 93.6543 6.87305V8.53125C93.6543 8.91406 93.6758 9.25195 93.7188 9.54492C93.7656 9.83789 93.834 10.0918 93.9238 10.3066C94.0137 10.5176 94.123 10.6914 94.252 10.8281C94.3809 10.9648 94.5293 11.0664 94.6973 11.1328C94.8691 11.1953 95.0586 11.2266 95.2656 11.2266C95.5312 11.2266 95.7637 11.1758 95.9629 11.0742C96.1621 10.9727 96.3281 10.8145 96.4609 10.5996C96.5977 10.3809 96.6992 10.1016 96.7656 9.76172C96.832 9.41797 96.8652 9.00781 96.8652 8.53125ZM102.169 6.24C102.465 6.24 102.701 6.3 102.877 6.42L102.685 7.428C102.517 7.324 102.273 7.288 101.953 7.32C101.625 7.336 101.337 7.472 101.089 7.728C100.849 7.976 100.725 8.292 100.717 8.676V12H99.6486V6.216H100.717V7.404C101.053 6.628 101.537 6.24 102.169 6.24ZM108.58 9.54L104.824 9.552V9.948C104.824 10.308 104.956 10.604 105.22 10.836C105.492 11.068 105.816 11.184 106.192 11.184C106.52 11.184 106.812 11.1 107.068 10.932C107.324 10.764 107.48 10.548 107.536 10.284L108.472 10.476C108.384 10.94 108.128 11.324 107.704 11.628C107.28 11.924 106.776 12.072 106.192 12.072C105.568 12.072 105.024 11.888 104.56 11.52C104.104 11.152 103.876 10.64 103.876 9.984V8.268C103.876 7.652 104.096 7.144 104.536 6.744C104.984 6.344 105.532 6.144 106.18 6.144C106.86 6.144 107.428 6.344 107.884 6.744C108.348 7.136 108.58 7.644 108.58 8.268V9.54ZM106.18 7.044C105.82 7.044 105.504 7.164 105.232 7.404C104.96 7.636 104.824 7.936 104.824 8.304V8.772L107.584 8.76V8.304C107.584 7.928 107.448 7.624 107.176 7.392C106.904 7.16 106.572 7.044 106.18 7.044ZM111.478 12L109.57 6.216H110.734L112.054 10.788L113.374 6.216H114.526L112.63 12H111.478ZM117.104 5.148C116.968 5.292 116.8 5.364 116.6 5.364C116.4 5.364 116.228 5.292 116.084 5.148C115.94 5.004 115.868 4.828 115.868 4.62C115.868 4.42 115.936 4.252 116.072 4.116C116.216 3.98 116.392 3.912 116.6 3.912C116.8 3.912 116.968 3.98 117.104 4.116C117.248 4.252 117.32 4.42 117.32 4.62C117.32 4.828 117.248 5.004 117.104 5.148ZM116.036 12V6.216H117.116V12H116.036ZM123.768 9.54L120.012 9.552V9.948C120.012 10.308 120.144 10.604 120.408 10.836C120.68 11.068 121.004 11.184 121.38 11.184C121.708 11.184 122 11.1 122.256 10.932C122.512 10.764 122.668 10.548 122.724 10.284L123.66 10.476C123.572 10.94 123.316 11.324 122.892 11.628C122.468 11.924 121.964 12.072 121.38 12.072C120.756 12.072 120.212 11.888 119.748 11.52C119.292 11.152 119.064 10.64 119.064 9.984V8.268C119.064 7.652 119.284 7.144 119.724 6.744C120.172 6.344 120.72 6.144 121.368 6.144C122.048 6.144 122.616 6.344 123.072 6.744C123.536 7.136 123.768 7.644 123.768 8.268V9.54ZM121.368 7.044C121.008 7.044 120.692 7.164 120.42 7.404C120.148 7.636 120.012 7.936 120.012 8.304V8.772L122.772 8.76V8.304C122.772 7.928 122.636 7.624 122.364 7.392C122.092 7.16 121.76 7.044 121.368 7.044ZM132.173 6.216H133.325L131.429 12H130.397L129.041 7.74L127.685 12H126.653L124.757 6.216H125.909L127.241 10.788L128.561 6.216H129.533L130.853 10.788L132.173 6.216ZM136.564 12.048C135.9 12.048 135.36 11.892 134.944 11.58C134.528 11.26 134.32 10.852 134.32 10.356V10.212H135.304V10.38C135.304 10.628 135.42 10.836 135.652 11.004C135.892 11.164 136.192 11.244 136.552 11.244C136.896 11.244 137.176 11.168 137.392 11.016C137.608 10.856 137.716 10.652 137.716 10.404C137.716 10.204 137.632 10.048 137.464 9.936C137.296 9.824 137.008 9.712 136.6 9.6C136.192 9.488 135.9 9.396 135.724 9.324C135.276 9.156 134.928 8.964 134.68 8.748C134.44 8.532 134.32 8.232 134.32 7.848C134.32 7.344 134.52 6.94 134.92 6.636C135.32 6.332 135.848 6.18 136.504 6.18C137.16 6.18 137.692 6.336 138.1 6.648C138.508 6.96 138.712 7.368 138.712 7.872V7.98H137.716V7.872C137.716 7.624 137.604 7.42 137.38 7.26C137.156 7.1 136.868 7.02 136.516 7.02C136.172 7.02 135.892 7.096 135.676 7.248C135.46 7.392 135.352 7.584 135.352 7.824C135.352 7.944 135.38 8.048 135.436 8.136C135.5 8.224 135.6 8.3 135.736 8.364C135.88 8.428 136.012 8.48 136.132 8.52C136.26 8.56 136.436 8.612 136.66 8.676C136.892 8.74 137.072 8.792 137.2 8.832C137.712 8.992 138.104 9.188 138.376 9.42C138.656 9.644 138.796 9.964 138.796 10.38C138.796 10.892 138.592 11.3 138.184 11.604C137.776 11.9 137.236 12.048 136.564 12.048Z" fill="#ADAFAE"/>
</svg>
