<svg width="105" height="16" viewBox="0 0 105 16" fill="none" xmlns="http://www.w3.org/2000/svg">
<path d="M4.088 12.24C2.89333 12.24 1.912 11.8987 1.144 11.216C0.386667 10.5333 0.00800002 9.712 0.00800002 8.752V4.608C0.00800002 3.648 0.386667 2.82133 1.144 2.128C1.912 1.43467 2.89333 1.088 4.088 1.088C5.304 1.088 6.28533 1.43467 7.032 2.128C7.78933 2.81067 8.168 3.63733 8.168 4.608V4.816L6.056 4.928L6.04 4.4C6.02933 4.016 5.85333 3.664 5.512 3.344C5.17067 3.01333 4.696 2.848 4.088 2.848C3.50133 2.848 3.02667 3.01333 2.664 3.344C2.312 3.67467 2.136 4.02667 2.136 4.4V8.848C2.136 9.232 2.312 9.6 2.664 9.952C3.02667 10.304 3.50133 10.48 4.088 10.48C4.70667 10.48 5.18133 10.3307 5.512 10.032C5.85333 9.73333 6.03467 9.392 6.056 9.008L6.088 8.496L8.168 8.56V8.752C8.168 9.744 7.81067 10.576 7.096 11.248C6.392 11.9093 5.38933 12.24 4.088 12.24ZM16.2093 11.328C15.5586 11.872 14.7426 12.144 13.7613 12.144C12.7799 12.144 11.9639 11.872 11.3133 11.328C10.6626 10.784 10.3372 10.112 10.3372 9.312V6.736C10.3372 5.95733 10.6679 5.30133 11.3293 4.768C12.0013 4.224 12.8119 3.952 13.7613 3.952C14.7213 3.952 15.5319 4.224 16.1933 4.768C16.8546 5.30133 17.1853 5.95733 17.1853 6.736V9.312C17.1853 10.112 16.8599 10.784 16.2093 11.328ZM13.7613 10.512C14.2306 10.512 14.5879 10.3893 14.8333 10.144C15.0786 9.888 15.2013 9.568 15.2013 9.184V6.864C15.2013 6.52267 15.0679 6.22933 14.8013 5.984C14.5453 5.728 14.1986 5.6 13.7613 5.6C13.3346 5.6 12.9826 5.728 12.7053 5.984C12.4386 6.24 12.3053 6.53333 12.3053 6.864V9.184C12.3053 9.55733 12.4333 9.872 12.6893 10.128C12.9453 10.384 13.3026 10.512 13.7613 10.512ZM27.6424 3.952C28.5597 3.952 29.2424 4.18667 29.6904 4.656C30.149 5.12533 30.3784 5.776 30.3784 6.608V12H28.4104V6.608C28.4104 6.24533 28.2877 5.95733 28.0424 5.744C27.8077 5.52 27.5037 5.408 27.1304 5.408C26.7464 5.408 26.437 5.52 26.2024 5.744C25.9784 5.95733 25.8664 6.24533 25.8664 6.608V12H23.8984V6.608C23.8984 6.24533 23.7757 5.95733 23.5304 5.744C23.2957 5.52 22.9917 5.408 22.6184 5.408C22.2344 5.408 21.925 5.52 21.6904 5.744C21.4664 5.95733 21.3544 6.24533 21.3544 6.608V12H19.2904V4.048H21.3544V4.672C21.8024 4.192 22.3944 3.952 23.1304 3.952C24.3037 3.952 25.1037 4.34133 25.5304 5.12C25.9677 4.34133 26.6717 3.952 27.6424 3.952ZM40.8455 3.952C41.7628 3.952 42.4455 4.18667 42.8935 4.656C43.3522 5.12533 43.5815 5.776 43.5815 6.608V12H41.6135V6.608C41.6135 6.24533 41.4908 5.95733 41.2455 5.744C41.0108 5.52 40.7068 5.408 40.3335 5.408C39.9495 5.408 39.6402 5.52 39.4055 5.744C39.1815 5.95733 39.0695 6.24533 39.0695 6.608V12H37.1015V6.608C37.1015 6.24533 36.9788 5.95733 36.7335 5.744C36.4988 5.52 36.1948 5.408 35.8215 5.408C35.4375 5.408 35.1282 5.52 34.8935 5.744C34.6695 5.95733 34.5575 6.24533 34.5575 6.608V12H32.4935V4.048H34.5575V4.672C35.0055 4.192 35.5975 3.952 36.3335 3.952C37.5068 3.952 38.3068 4.34133 38.7335 5.12C39.1708 4.34133 39.8748 3.952 40.8455 3.952ZM52.5766 8.528H47.5366V8.992C47.5366 9.38667 47.686 9.72267 47.9846 10C48.294 10.2667 48.662 10.4 49.0886 10.4C49.4726 10.4 49.8033 10.304 50.0806 10.112C50.358 9.92 50.534 9.67467 50.6086 9.376L52.4006 9.744C52.2833 10.4267 51.9206 10.992 51.3126 11.44C50.7046 11.888 49.9633 12.112 49.0886 12.112C48.1713 12.112 47.3766 11.8453 46.7046 11.312C46.0326 10.768 45.6966 10.0213 45.6966 9.072V6.976C45.6966 6.09067 46.0166 5.36 46.6566 4.784C47.2966 4.19733 48.102 3.904 49.0726 3.904C50.054 3.904 50.8806 4.19733 51.5526 4.784C52.2353 5.36 52.5766 6.09067 52.5766 6.976V8.528ZM49.0726 5.632C48.6566 5.632 48.294 5.76533 47.9846 6.032C47.686 6.29867 47.5366 6.64 47.5366 7.056V7.424L50.6566 7.408V7.056C50.6566 6.64 50.502 6.29867 50.1926 6.032C49.8833 5.76533 49.51 5.632 49.0726 5.632ZM58.4585 3.952C59.3652 3.952 60.0478 4.18667 60.5065 4.656C60.9652 5.12533 61.1945 5.776 61.1945 6.608V12H59.2265V6.608C59.2265 6.24533 59.1038 5.95733 58.8585 5.744C58.6238 5.52 58.3198 5.408 57.9465 5.408C57.5625 5.408 57.2532 5.52 57.0185 5.744C56.7945 5.95733 56.6825 6.24533 56.6825 6.608V12H54.6185V4.048H56.6825V4.672C57.1305 4.192 57.7225 3.952 58.4585 3.952ZM67.562 5.744H65.802V9.216C65.802 9.92 66.1167 10.272 66.746 10.272H67.418V12C67.3753 12 67.2153 12.0053 66.938 12.016C66.6713 12.0373 66.4687 12.048 66.33 12.048C65.4767 12.048 64.8473 11.904 64.442 11.616C64.0367 11.3173 63.834 10.7893 63.834 10.032V5.744H62.682V4.208H63.834V2H65.802V4.208H67.562V5.744ZM74.7356 11.456C74.1383 11.872 73.3383 12.08 72.3356 12.08C71.333 12.08 70.5276 11.8507 69.9196 11.392C69.3223 10.9333 69.0236 10.336 69.0236 9.6V9.44H70.9116V9.648C70.9116 9.91467 71.045 10.1333 71.3116 10.304C71.5783 10.4747 71.9143 10.56 72.3196 10.56C72.693 10.56 72.9916 10.4853 73.2156 10.336C73.4503 10.1867 73.5676 9.984 73.5676 9.728C73.5676 9.49333 73.4343 9.31733 73.1676 9.2C72.901 9.08267 72.501 8.96533 71.9676 8.848C71.445 8.73067 71.0236 8.59733 70.7036 8.448C70.181 8.24533 69.7703 7.98933 69.4716 7.68C69.173 7.37067 69.0236 6.95467 69.0236 6.432C69.0236 5.67467 69.317 5.07733 69.9036 4.64C70.4903 4.192 71.2636 3.968 72.2236 3.968C73.205 3.968 73.9943 4.19733 74.5916 4.656C75.189 5.11467 75.4876 5.72267 75.4876 6.48V6.64H73.5676V6.48C73.5676 6.20267 73.445 5.984 73.1996 5.824C72.965 5.65333 72.6503 5.568 72.2556 5.568C71.893 5.568 71.589 5.64267 71.3436 5.792C71.109 5.94133 70.9916 6.13867 70.9916 6.384C70.9916 6.52267 71.0396 6.64533 71.1356 6.752C71.2316 6.848 71.3703 6.928 71.5516 6.992C71.7436 7.056 71.9356 7.11467 72.1276 7.168C72.3303 7.21067 72.581 7.26933 72.8796 7.344C73.1783 7.408 73.4343 7.47733 73.6476 7.552C74.2876 7.76533 74.7783 8.03733 75.1196 8.368C75.461 8.688 75.6316 9.12533 75.6316 9.68C75.6316 10.448 75.333 11.04 74.7356 11.456Z" fill="#101010"/>
<path d="M81.291 8.02148V7.95312C81.291 6.95964 81.4027 6.06185 81.626 5.25977C81.8493 4.45312 82.1341 3.74674 82.4805 3.14062C82.8268 2.53451 83.1914 2.0332 83.5742 1.63672C83.957 1.23568 84.3102 0.946289 84.6338 0.768555L84.9004 1.60254C84.6315 1.80762 84.3581 2.09017 84.0801 2.4502C83.8066 2.81022 83.5537 3.25228 83.3213 3.77637C83.0934 4.30046 82.9089 4.90885 82.7676 5.60156C82.6263 6.29427 82.5557 7.07357 82.5557 7.93945V8.03516C82.5557 8.90104 82.6263 9.68262 82.7676 10.3799C82.9089 11.0726 83.0934 11.6833 83.3213 12.2119C83.5537 12.7406 83.8066 13.1895 84.0801 13.5586C84.3581 13.9323 84.6315 14.2285 84.9004 14.4473L84.6338 15.2129C84.3102 15.0352 83.957 14.7458 83.5742 14.3447C83.1914 13.9482 82.8268 13.4469 82.4805 12.8408C82.1341 12.2393 81.8493 11.5352 81.626 10.7285C81.4027 9.92188 81.291 9.01953 81.291 8.02148ZM87.8467 6.40137H88.749C89.1911 6.40137 89.5557 6.32845 89.8428 6.18262C90.1344 6.03223 90.3509 5.82943 90.4922 5.57422C90.638 5.31445 90.7109 5.02279 90.7109 4.69922C90.7109 4.31641 90.6471 3.99512 90.5195 3.73535C90.3919 3.47559 90.2005 3.27962 89.9453 3.14746C89.6901 3.0153 89.3665 2.94922 88.9746 2.94922C88.6191 2.94922 88.3047 3.01986 88.0312 3.16113C87.7624 3.29785 87.5505 3.49382 87.3955 3.74902C87.2451 4.00423 87.1699 4.30501 87.1699 4.65137H85.9053C85.9053 4.14551 86.0329 3.68522 86.2881 3.27051C86.5433 2.85579 86.901 2.52539 87.3613 2.2793C87.8262 2.0332 88.3639 1.91016 88.9746 1.91016C89.5762 1.91016 90.1025 2.01725 90.5537 2.23145C91.0049 2.44108 91.3558 2.75553 91.6064 3.1748C91.8571 3.58952 91.9824 4.10677 91.9824 4.72656C91.9824 4.97721 91.9232 5.24609 91.8047 5.5332C91.6908 5.81576 91.5107 6.08008 91.2646 6.32617C91.0231 6.57227 90.7087 6.77507 90.3213 6.93457C89.9339 7.08952 89.4691 7.16699 88.9268 7.16699H87.8467V6.40137ZM87.8467 7.44043V6.68164H88.9268C89.5602 6.68164 90.0843 6.75684 90.499 6.90723C90.9137 7.05762 91.2396 7.25814 91.4766 7.50879C91.7181 7.75944 91.8867 8.03516 91.9824 8.33594C92.0827 8.63216 92.1328 8.92839 92.1328 9.22461C92.1328 9.68945 92.0531 10.1019 91.8936 10.4619C91.7386 10.8219 91.5176 11.1273 91.2305 11.3779C90.9479 11.6286 90.6152 11.8177 90.2324 11.9453C89.8496 12.0729 89.4326 12.1367 88.9814 12.1367C88.5485 12.1367 88.1406 12.0752 87.7578 11.9521C87.3796 11.8291 87.0446 11.6514 86.7529 11.4189C86.4613 11.182 86.2334 10.8926 86.0693 10.5508C85.9053 10.2044 85.8232 9.81022 85.8232 9.36816H87.0879C87.0879 9.71452 87.1631 10.0176 87.3135 10.2773C87.4684 10.5371 87.6872 10.7399 87.9697 10.8857C88.2568 11.027 88.5941 11.0977 88.9814 11.0977C89.3688 11.0977 89.7015 11.0316 89.9795 10.8994C90.262 10.7627 90.4785 10.5576 90.6289 10.2842C90.7839 10.0107 90.8613 9.66667 90.8613 9.25195C90.8613 8.83724 90.7747 8.49772 90.6016 8.2334C90.4284 7.96452 90.1823 7.76628 89.8633 7.63867C89.5488 7.50651 89.1774 7.44043 88.749 7.44043H87.8467ZM100.124 6.23047V7.74805C100.124 8.5638 100.051 9.25195 99.9053 9.8125C99.7594 10.373 99.5498 10.8242 99.2764 11.166C99.0029 11.5078 98.6725 11.7562 98.2852 11.9111C97.9023 12.0615 97.4694 12.1367 96.9863 12.1367C96.6035 12.1367 96.2503 12.0889 95.9268 11.9932C95.6032 11.8975 95.3115 11.7448 95.0518 11.5352C94.7965 11.321 94.5778 11.043 94.3955 10.7012C94.2132 10.3594 94.0742 9.94466 93.9785 9.45703C93.8828 8.9694 93.835 8.39974 93.835 7.74805V6.23047C93.835 5.41471 93.9079 4.73112 94.0537 4.17969C94.2041 3.62826 94.416 3.1862 94.6895 2.85352C94.9629 2.51628 95.291 2.27474 95.6738 2.12891C96.0612 1.98307 96.4941 1.91016 96.9727 1.91016C97.36 1.91016 97.7155 1.95801 98.0391 2.05371C98.3672 2.14486 98.6589 2.29297 98.9141 2.49805C99.1693 2.69857 99.3857 2.96745 99.5635 3.30469C99.7458 3.63737 99.8848 4.04525 99.9805 4.52832C100.076 5.01139 100.124 5.57878 100.124 6.23047ZM98.8525 7.95312V6.01855C98.8525 5.57194 98.8252 5.18001 98.7705 4.84277C98.7204 4.50098 98.6452 4.20931 98.5449 3.96777C98.4447 3.72624 98.3171 3.53027 98.1621 3.37988C98.0117 3.22949 97.8363 3.12012 97.6357 3.05176C97.4398 2.97884 97.2188 2.94238 96.9727 2.94238C96.6719 2.94238 96.4053 2.99935 96.1729 3.11328C95.9404 3.22266 95.7445 3.39811 95.585 3.63965C95.43 3.88118 95.3115 4.19792 95.2295 4.58984C95.1475 4.98177 95.1064 5.45801 95.1064 6.01855V7.95312C95.1064 8.39974 95.1315 8.79395 95.1816 9.13574C95.2363 9.47754 95.3161 9.77376 95.4209 10.0244C95.5257 10.2705 95.6533 10.4733 95.8037 10.6328C95.9541 10.7923 96.1273 10.9108 96.3232 10.9883C96.5238 11.0612 96.7448 11.0977 96.9863 11.0977C97.2962 11.0977 97.5674 11.0384 97.7998 10.9199C98.0322 10.8014 98.2259 10.6169 98.3809 10.3662C98.5404 10.111 98.6589 9.78516 98.7363 9.38867C98.8138 8.98763 98.8525 8.50911 98.8525 7.95312ZM104.8 7.95312V8.02148C104.8 9.01953 104.688 9.92188 104.465 10.7285C104.242 11.5352 103.957 12.2393 103.61 12.8408C103.264 13.4469 102.899 13.9482 102.517 14.3447C102.134 14.7458 101.781 15.0352 101.457 15.2129L101.19 14.4473C101.459 14.2422 101.73 13.9551 102.004 13.5859C102.277 13.2214 102.53 12.7702 102.763 12.2324C102.995 11.6992 103.182 11.084 103.323 10.3867C103.465 9.6849 103.535 8.90104 103.535 8.03516V7.93945C103.535 7.07357 103.46 6.29199 103.31 5.59473C103.159 4.8929 102.963 4.27539 102.722 3.74219C102.485 3.20898 102.229 2.76009 101.956 2.39551C101.687 2.02637 101.432 1.74154 101.19 1.54102L101.457 0.768555C101.781 0.946289 102.134 1.23568 102.517 1.63672C102.899 2.0332 103.264 2.53451 103.61 3.14062C103.957 3.74674 104.242 4.45312 104.465 5.25977C104.688 6.06185 104.8 6.95964 104.8 7.95312Z" fill="#ADAFAE"/>
</svg>
