<svg width="90" height="44" viewBox="0 0 90 44" fill="none" xmlns="http://www.w3.org/2000/svg">
<path d="M4.662 4.98732C5.43667 4.98732 6.05733 5.22065 6.524 5.68732C6.99067 6.15398 7.224 6.76998 7.224 7.53532C7.224 8.29132 6.986 8.90265 6.51 9.36932C6.034 9.82665 5.404 10.0553 4.62 10.0553H2.072V14.1013H1.106V4.98732H4.662ZM4.536 9.27132C5.04933 9.27132 5.46467 9.11732 5.782 8.80932C6.09933 8.49198 6.258 8.07665 6.258 7.56332C6.258 7.04065 6.09933 6.62065 5.782 6.30332C5.46467 5.97665 5.04933 5.81332 4.536 5.81332H2.072V9.27132H4.536ZM11.4392 7.49332C11.7659 7.49332 12.0412 7.55398 12.2652 7.67532L12.0552 8.61332C11.8685 8.49198 11.6025 8.44532 11.2572 8.47332C10.8372 8.49198 10.4732 8.66465 10.1652 8.99132C9.86654 9.30865 9.71254 9.70998 9.7032 10.1953V14.1013H8.7372V7.45132H9.7032V8.89332C10.0952 7.95998 10.6739 7.49332 11.4392 7.49332ZM14.4014 6.35932C14.1867 6.35932 14.0047 6.28465 13.8554 6.13532C13.7154 5.98598 13.6454 5.80398 13.6454 5.58932C13.6454 5.38398 13.7154 5.21132 13.8554 5.07132C14.0047 4.93132 14.1867 4.86132 14.4014 4.86132C14.6067 4.86132 14.7841 4.93132 14.9334 5.07132C15.0827 5.21132 15.1574 5.38398 15.1574 5.58932C15.1574 5.80398 15.0827 5.98598 14.9334 6.13532C14.7841 6.28465 14.6067 6.35932 14.4014 6.35932ZM13.8974 14.1013V7.45132H14.8634V14.1013H13.8974ZM21.4388 13.7233C20.9721 14.022 20.4261 14.1713 19.8008 14.1713C19.1755 14.1713 18.6341 14.0127 18.1768 13.6953C17.7195 13.3687 17.4115 12.93 17.2528 12.3793C17.1221 11.9593 17.0568 11.4273 17.0568 10.7833C17.0568 10.186 17.1221 9.65865 17.2528 9.20132C17.4021 8.65065 17.7055 8.21665 18.1628 7.89932C18.6201 7.58198 19.1661 7.42332 19.8008 7.42332C20.4261 7.42332 20.9721 7.58198 21.4388 7.89932C21.9148 8.21665 22.2181 8.61798 22.3488 9.10332C22.3488 9.11265 22.3815 9.27132 22.4468 9.57932L21.4808 9.71932L21.4388 9.42532C21.3641 9.07998 21.1728 8.79998 20.8648 8.58532C20.5568 8.36132 20.1975 8.24932 19.7868 8.24932C19.3668 8.24932 19.0121 8.36132 18.7228 8.58532C18.4335 8.79998 18.2468 9.09865 18.1628 9.48132C18.0788 9.79865 18.0368 10.2373 18.0368 10.7973C18.0368 11.376 18.0788 11.8053 18.1628 12.0853C18.2561 12.4773 18.4428 12.7853 18.7228 13.0093C19.0121 13.224 19.3668 13.3313 19.7868 13.3313C20.2068 13.3313 20.5661 13.2333 20.8648 13.0373C21.1728 12.832 21.3641 12.552 21.4388 12.1973C21.4575 12.104 21.4668 12.0293 21.4668 11.9733L22.4188 12.1133C22.4188 12.216 22.3955 12.3373 22.3488 12.4773C22.2088 13 21.9055 13.4153 21.4388 13.7233ZM29.4742 11.1613L25.1202 11.1753V11.8193C25.1202 12.286 25.2835 12.6593 25.6102 12.9393C25.9462 13.2193 26.3475 13.3593 26.8142 13.3593C27.2248 13.3593 27.5888 13.2567 27.9062 13.0513C28.2328 12.846 28.4335 12.58 28.5082 12.2533L29.3482 12.4213C29.2548 12.9347 28.9702 13.3547 28.4942 13.6813C28.0275 14.008 27.4675 14.1713 26.8142 14.1713C26.1235 14.1713 25.5215 13.966 25.0082 13.5553C24.4948 13.1353 24.2382 12.566 24.2382 11.8473V9.76132C24.2382 9.07065 24.4902 8.50598 24.9942 8.06732C25.4982 7.61932 26.1048 7.39532 26.8142 7.39532C27.5608 7.39532 28.1908 7.61465 28.7042 8.05332C29.2175 8.49198 29.4742 9.06132 29.4742 9.76132V11.1613ZM26.8142 8.22132C26.3662 8.22132 25.9695 8.36598 25.6242 8.65532C25.2882 8.94465 25.1202 9.32265 25.1202 9.78932V10.4613L28.5782 10.4473V9.78932C28.5782 9.31332 28.4055 8.93532 28.0602 8.65532C27.7148 8.36598 27.2995 8.22132 26.8142 8.22132Z" fill="#ADAFAE"/>
<path d="M7.18555 23.0803V25.6555H5.79688V23.0803H7.18555ZM7.00977 37.4329V39.7971H5.62109V37.4329H7.00977ZM7.7832 34.5237C7.7832 34.1956 7.72754 33.9202 7.61621 33.6975C7.51074 33.4749 7.33496 33.2786 7.08887 33.1086C6.84277 32.9387 6.51758 32.7717 6.11328 32.6077C5.33984 32.303 4.66016 31.9866 4.07422 31.6584C3.48828 31.3245 3.03125 30.9084 2.70312 30.4104C2.375 29.9124 2.21094 29.2737 2.21094 28.4944C2.21094 27.7678 2.38672 27.1379 2.73828 26.6047C3.08984 26.0657 3.57617 25.6497 4.19727 25.3567C4.82422 25.0637 5.54785 24.9172 6.36816 24.9172C6.99512 24.9172 7.56641 25.011 8.08203 25.1985C8.59766 25.386 9.04004 25.6555 9.40918 26.0071C9.78418 26.3586 10.0713 26.7922 10.2705 27.3079C10.4697 27.8176 10.5693 28.4006 10.5693 29.0569H7.81836C7.81836 28.7112 7.7832 28.4124 7.71289 28.1604C7.64258 27.9026 7.54004 27.6917 7.40527 27.5276C7.27051 27.3577 7.1123 27.2317 6.93066 27.1497C6.75488 27.0676 6.55566 27.0266 6.33301 27.0266C6.01074 27.0266 5.74707 27.094 5.54199 27.2288C5.33691 27.3577 5.1875 27.5334 5.09375 27.7561C5 27.9788 4.95312 28.2278 4.95312 28.5032C4.95312 28.7844 5.00293 29.0305 5.10254 29.2415C5.20801 29.4524 5.38379 29.6458 5.62988 29.8215C5.87598 29.9973 6.21289 30.176 6.64062 30.3577C7.40234 30.6682 8.07617 30.9963 8.66211 31.342C9.24805 31.6819 9.70508 32.1008 10.0332 32.5989C10.3672 33.0911 10.5342 33.7268 10.5342 34.5061C10.5342 35.2678 10.3555 35.9153 9.99805 36.4485C9.64648 36.9817 9.15137 37.3889 8.5127 37.6702C7.87988 37.9456 7.14746 38.0833 6.31543 38.0833C5.75879 38.0833 5.20801 38.0129 4.66309 37.8723C4.12402 37.7258 3.63184 37.4885 3.18652 37.1604C2.74121 36.8323 2.38672 36.3958 2.12305 35.8508C1.85938 35.3059 1.72754 34.6379 1.72754 33.8469H4.47852C4.47852 34.2571 4.52832 34.5999 4.62793 34.8752C4.7334 35.1448 4.87109 35.3616 5.04102 35.5256C5.2168 35.6838 5.41309 35.7981 5.62988 35.8684C5.85254 35.9387 6.08105 35.9739 6.31543 35.9739C6.64941 35.9739 6.9248 35.9094 7.1416 35.7805C7.3584 35.6516 7.51953 35.4788 7.625 35.262C7.73047 35.0393 7.7832 34.7932 7.7832 34.5237ZM23.0322 25.093V37.8987H20.2812V28.2219L17.3105 29.1272V27.0002L22.7598 25.093H23.0322ZM33.4209 25.093V37.8987H30.6699V28.2219L27.6992 29.1272V27.0002L33.1484 25.093H33.4209ZM46.1914 30.3577V32.634C46.1914 33.5715 46.0859 34.3831 45.875 35.0686C45.6699 35.7542 45.3711 36.3196 44.9785 36.7649C44.5918 37.2102 44.1289 37.5413 43.5898 37.7581C43.0566 37.969 42.4648 38.0745 41.8145 38.0745C41.293 38.0745 40.8066 38.0071 40.3555 37.8723C39.9043 37.7375 39.4971 37.5295 39.1338 37.2483C38.7764 36.9612 38.4688 36.6038 38.2109 36.176C37.9531 35.7483 37.7539 35.2385 37.6133 34.6467C37.4785 34.0549 37.4111 33.384 37.4111 32.634V30.3577C37.4111 29.4084 37.5137 28.594 37.7188 27.9143C37.9297 27.2346 38.2314 26.6721 38.624 26.2268C39.0166 25.7815 39.4795 25.4534 40.0127 25.2424C40.5518 25.0315 41.1465 24.926 41.7969 24.926C42.3184 24.926 42.8018 24.9934 43.2471 25.1282C43.6982 25.2629 44.1055 25.4709 44.4688 25.7522C44.832 26.0334 45.1396 26.3879 45.3916 26.8157C45.6494 27.2434 45.8457 27.7532 45.9805 28.345C46.1211 28.9309 46.1914 29.6018 46.1914 30.3577ZM43.4492 32.9768V29.9973C43.4492 29.5579 43.4229 29.177 43.3701 28.8547C43.3232 28.5266 43.2529 28.2483 43.1592 28.0198C43.0713 27.7913 42.96 27.6067 42.8252 27.4661C42.6904 27.3254 42.5352 27.2229 42.3594 27.1584C42.1895 27.0881 42.002 27.053 41.7969 27.053C41.5391 27.053 41.3076 27.1057 41.1025 27.2112C40.8975 27.3167 40.7246 27.4836 40.584 27.7122C40.4434 27.9348 40.335 28.2366 40.2588 28.6174C40.1885 28.9924 40.1533 29.4524 40.1533 29.9973V32.9768C40.1533 33.4163 40.1768 33.8 40.2236 34.1282C40.2764 34.4563 40.3467 34.7375 40.4346 34.9719C40.5283 35.2004 40.6426 35.3879 40.7773 35.5344C40.9121 35.675 41.0674 35.7776 41.2432 35.842C41.4189 35.9065 41.6094 35.9387 41.8145 35.9387C42.0723 35.9387 42.3008 35.8889 42.5 35.7893C42.6992 35.6838 42.8691 35.5168 43.0098 35.2883C43.1562 35.054 43.2646 34.7463 43.335 34.3655C43.4111 33.9846 43.4492 33.5217 43.4492 32.9768Z" fill="#101010"/>
<path d="M52.294 36.3567L54.772 27.2847H55.738L53.274 36.3567H52.294ZM64.0665 29.7067C64.7758 29.7067 65.3311 29.884 65.7325 30.2387C66.1338 30.5933 66.3345 31.0833 66.3345 31.7087V36.3987H65.3965V31.7087C65.3965 31.298 65.2518 30.9807 64.9625 30.7567C64.6731 30.5233 64.2998 30.4067 63.8425 30.4067C63.3851 30.4067 63.0118 30.5233 62.7225 30.7567C62.4331 30.9807 62.2885 31.298 62.2885 31.7087V36.3987H61.3085V29.7487H62.2885V30.4907C62.6805 29.968 63.2731 29.7067 64.0665 29.7067ZM69.3682 28.6567C69.1535 28.6567 68.9715 28.582 68.8222 28.4327C68.6822 28.2833 68.6122 28.1013 68.6122 27.8867C68.6122 27.6813 68.6822 27.5087 68.8222 27.3687C68.9715 27.2287 69.1535 27.1587 69.3682 27.1587C69.5735 27.1587 69.7509 27.2287 69.9002 27.3687C70.0495 27.5087 70.1242 27.6813 70.1242 27.8867C70.1242 28.1013 70.0495 28.2833 69.9002 28.4327C69.7509 28.582 69.5735 28.6567 69.3682 28.6567ZM68.8642 36.3987V29.7487H69.8302V36.3987H68.8642ZM76.2236 29.7487H77.2036V36.2727C77.2036 36.842 77.1009 37.3273 76.8956 37.7287C76.6996 38.13 76.4196 38.4333 76.0556 38.6387C75.6916 38.844 75.2856 38.9793 74.8376 39.0447C74.3989 39.1193 73.9089 39.1333 73.3676 39.0867L73.3956 38.2327C74.2823 38.3167 74.9729 38.2 75.4676 37.8827C75.9716 37.5747 76.2236 37.0427 76.2236 36.2867V35.7127C75.8316 36.2353 75.2389 36.4967 74.4456 36.4967C73.7363 36.4967 73.1809 36.3193 72.7796 35.9647C72.3783 35.61 72.1776 35.12 72.1776 34.4947V31.7227C72.1776 31.0973 72.3783 30.6073 72.7796 30.2527C73.1809 29.8887 73.7316 29.7067 74.4316 29.7067C75.2343 29.7067 75.8316 29.9727 76.2236 30.5047V29.7487ZM73.5496 35.4607C73.8389 35.6847 74.2123 35.7967 74.6696 35.7967C75.1269 35.7967 75.5003 35.6847 75.7896 35.4607C76.0789 35.2273 76.2236 34.9053 76.2236 34.4947V31.7227C76.2236 31.3027 76.0789 30.9807 75.7896 30.7567C75.5096 30.5327 75.1363 30.4207 74.6696 30.4207C74.2123 30.4207 73.8389 30.5327 73.5496 30.7567C73.2603 30.9807 73.1156 31.3027 73.1156 31.7227V34.4947C73.1156 34.9053 73.2603 35.2273 73.5496 35.4607ZM81.9223 29.7067C82.6316 29.7067 83.1869 29.884 83.5883 30.2387C83.9896 30.5933 84.1903 31.0833 84.1903 31.7087V36.3987H83.2523V31.7087C83.2523 31.298 83.1076 30.9807 82.8183 30.7567C82.5289 30.5233 82.1556 30.4067 81.6983 30.4067C81.2409 30.4067 80.8676 30.5233 80.5783 30.7567C80.2889 30.9807 80.1443 31.298 80.1443 31.7087V36.3987H79.1783V27.2847H80.1443V30.5187C80.5363 29.9773 81.1289 29.7067 81.9223 29.7067ZM89.2817 30.6307H87.6437V34.4387C87.6437 34.8307 87.7323 35.12 87.9097 35.3067C88.087 35.484 88.3763 35.5727 88.7777 35.5727H89.2397V36.3987C89.0903 36.408 88.8803 36.4127 88.6097 36.4127C87.9563 36.4127 87.4757 36.2913 87.1677 36.0487C86.869 35.806 86.715 35.386 86.7057 34.7887V30.6307H85.7257V29.9027H86.7057V28.1387H87.6437V29.9027H89.2817V30.6307Z" fill="#101010"/>
</svg>
