<svg width="16" height="16" viewBox="0 0 16 16" fill="none" xmlns="http://www.w3.org/2000/svg">
<path d="M8 15.1814C7.7693 15.1814 7.54605 15.1517 7.36 15.0847C4.51721 14.1098 0 10.6493 0 5.53678C0 2.93213 2.10605 0.818644 4.69581 0.818644C5.95349 0.818644 7.1293 1.30981 8 2.18795C8.43225 1.75175 8.94705 1.40602 9.51435 1.17092C10.0817 0.935817 10.6901 0.816064 11.3042 0.818644C13.894 0.818644 16 2.93958 16 5.53678C16 10.6568 11.4828 14.1098 8.64 15.0847C8.45395 15.1517 8.2307 15.1814 8 15.1814ZM4.69581 1.93492C2.72372 1.93492 1.11628 3.54981 1.11628 5.53678C1.11628 10.6196 6.00558 13.4475 7.72465 14.0354C7.8586 14.08 8.14884 14.08 8.28279 14.0354C9.99442 13.4475 14.8912 10.627 14.8912 5.53678C14.8912 3.54981 13.2837 1.93492 11.3116 1.93492C10.1805 1.93492 9.13116 2.4633 8.45395 3.37864C8.24558 3.66144 7.7693 3.66144 7.56093 3.37864C7.23024 2.92996 6.79854 2.56545 6.30078 2.31463C5.80302 2.06381 5.25319 1.93373 4.69581 1.93492Z" fill="#101010"/>
</svg>
