<svg width="32" height="32" viewBox="0 0 32 32" fill="none" xmlns="http://www.w3.org/2000/svg">
<rect width="32" height="32" rx="8" fill="white"/>
<path d="M14.3256 16C14.3256 16.3083 14.0757 16.5581 13.7674 16.5581C13.4592 16.5581 13.2093 16.3083 13.2093 16C13.2093 15.6917 13.4592 15.4419 13.7674 15.4419C14.0757 15.4419 14.3256 15.6917 14.3256 16Z" fill="#101010"/>
<path d="M16.5581 16C16.5581 16.3083 16.3083 16.5581 16 16.5581C15.6917 16.5581 15.4419 16.3083 15.4419 16C15.4419 15.6917 15.6917 15.4419 16 15.4419C16.3083 15.4419 16.5581 15.6917 16.5581 16Z" fill="#101010"/>
<path d="M18.7907 16C18.7907 16.3083 18.5408 16.5581 18.2326 16.5581C17.9243 16.5581 17.6744 16.3083 17.6744 16C17.6744 15.6917 17.9243 15.4419 18.2326 15.4419C18.5408 15.4419 18.7907 15.6917 18.7907 16Z" fill="#101010"/>
<path fill-rule="evenodd" clip-rule="evenodd" d="M22 16C22 12.6863 19.3137 10 16 10C12.6863 10 10 12.6863 10 16C10 16.9591 10.2253 17.8667 10.6263 18.6717C10.6861 18.7919 10.6988 18.9145 10.6712 19.0177L10.3388 20.2602C10.1112 21.1107 10.8893 21.8888 11.7398 21.6612L12.9823 21.3288C13.0855 21.3012 13.2081 21.3139 13.3283 21.3737C14.1333 21.7747 15.0409 22 16 22C19.3137 22 22 19.3137 22 16ZM16 10.8372C18.8513 10.8372 21.1628 13.1487 21.1628 16C21.1628 18.8513 18.8513 21.1628 16 21.1628C15.1734 21.1628 14.3932 20.9688 13.7015 20.6243C13.4239 20.486 13.0919 20.4328 12.7659 20.52L11.5234 20.8525C11.2953 20.9135 11.0865 20.7047 11.1475 20.4766L11.48 19.2341C11.5672 18.9081 11.514 18.5761 11.3757 18.2985C11.0312 17.6068 10.8372 16.8266 10.8372 16C10.8372 13.1487 13.1487 10.8372 16 10.8372Z" fill="#101010"/>
</svg>
