<svg width="64" height="20" viewBox="0 0 64 20" fill="none" xmlns="http://www.w3.org/2000/svg">
<path d="M5.27051 3.46094V5.49121H4.21094V3.46094H5.27051ZM5.14062 14.624V16.4561H4.08789V14.624H5.14062ZM6.0293 12.3955C6.0293 12.1357 5.97917 11.9102 5.87891 11.7188C5.7832 11.5273 5.62142 11.3564 5.39355 11.2061C5.17025 11.0557 4.86947 10.9121 4.49121 10.7754C3.90332 10.5612 3.38835 10.3265 2.94629 10.0713C2.50423 9.81152 2.16016 9.49023 1.91406 9.10742C1.67253 8.72461 1.55176 8.24154 1.55176 7.6582C1.55176 7.09766 1.68164 6.6123 1.94141 6.20215C2.20573 5.78743 2.57259 5.46842 3.04199 5.24512C3.51139 5.01725 4.05599 4.90332 4.67578 4.90332C5.15885 4.90332 5.5918 4.97624 5.97461 5.12207C6.36198 5.26335 6.69238 5.4707 6.96582 5.74414C7.24382 6.01758 7.45573 6.35482 7.60156 6.75586C7.75195 7.15234 7.82715 7.60579 7.82715 8.11621H6.02246C6.02246 7.83366 5.99056 7.58301 5.92676 7.36426C5.86296 7.14551 5.77181 6.96094 5.65332 6.81055C5.53483 6.6556 5.39128 6.53939 5.22266 6.46191C5.05859 6.38444 4.87174 6.3457 4.66211 6.3457C4.36133 6.3457 4.11296 6.40267 3.91699 6.5166C3.72559 6.63053 3.58431 6.78548 3.49316 6.98145C3.40658 7.17741 3.36328 7.40299 3.36328 7.6582C3.36328 7.9043 3.40885 8.12077 3.5 8.30762C3.5957 8.48991 3.75521 8.65625 3.97852 8.80664C4.20638 8.95703 4.51855 9.1097 4.91504 9.26465C5.50749 9.4834 6.02246 9.72493 6.45996 9.98926C6.89746 10.249 7.23698 10.568 7.47852 10.9463C7.72005 11.3245 7.84082 11.8031 7.84082 12.3818C7.84082 12.9743 7.7041 13.4756 7.43066 13.8857C7.16178 14.2959 6.78353 14.6081 6.2959 14.8223C5.80827 15.0365 5.24089 15.1436 4.59375 15.1436C4.17904 15.1436 3.76888 15.0889 3.36328 14.9795C2.95768 14.8701 2.58854 14.6924 2.25586 14.4463C1.92773 14.1956 1.66569 13.8652 1.46973 13.4551C1.27376 13.0404 1.17578 12.5322 1.17578 11.9307H2.9873C2.9873 12.277 3.03288 12.5641 3.12402 12.792C3.21517 13.0199 3.33822 13.2021 3.49316 13.3389C3.64811 13.471 3.82129 13.5645 4.0127 13.6191C4.2041 13.6738 4.39779 13.7012 4.59375 13.7012C4.91276 13.7012 5.17708 13.6465 5.38672 13.5371C5.60091 13.4277 5.76042 13.2751 5.86523 13.0791C5.97461 12.8786 6.0293 12.6507 6.0293 12.3955ZM17.3701 5.01953V15H15.5586V7.13184L13.1592 7.9248V6.46191L17.165 5.01953H17.3701ZM25.3682 5.01953V15H23.5566V7.13184L21.1572 7.9248V6.46191L25.1631 5.01953H25.3682Z" fill="#101010"/>
<path d="M31.8731 13.964L33.9971 6.188H34.8251L32.7131 13.964H31.8731ZM41.9638 8.264C42.5718 8.264 43.0478 8.416 43.3918 8.72C43.7358 9.024 43.9078 9.444 43.9078 9.98V14H43.1038V9.98C43.1038 9.628 42.9798 9.356 42.7318 9.164C42.4838 8.964 42.1638 8.864 41.7718 8.864C41.3798 8.864 41.0598 8.964 40.8118 9.164C40.5638 9.356 40.4398 9.628 40.4398 9.98V14H39.5998V8.3H40.4398V8.936C40.7758 8.488 41.2838 8.264 41.9638 8.264ZM46.5081 7.364C46.3241 7.364 46.1681 7.3 46.0401 7.172C45.9201 7.044 45.8601 6.888 45.8601 6.704C45.8601 6.528 45.9201 6.38 46.0401 6.26C46.1681 6.14 46.3241 6.08 46.5081 6.08C46.6841 6.08 46.8361 6.14 46.9641 6.26C47.0921 6.38 47.1561 6.528 47.1561 6.704C47.1561 6.888 47.0921 7.044 46.9641 7.172C46.8361 7.3 46.6841 7.364 46.5081 7.364ZM46.0761 14V8.3H46.9041V14H46.0761ZM52.3842 8.3H53.2242V13.892C53.2242 14.38 53.1362 14.796 52.9602 15.14C52.7922 15.484 52.5522 15.744 52.2402 15.92C51.9282 16.096 51.5802 16.212 51.1962 16.268C50.8202 16.332 50.4002 16.344 49.9362 16.304L49.9602 15.572C50.7202 15.644 51.3122 15.544 51.7362 15.272C52.1682 15.008 52.3842 14.552 52.3842 13.904V13.412C52.0482 13.86 51.5402 14.084 50.8602 14.084C50.2522 14.084 49.7762 13.932 49.4322 13.628C49.0882 13.324 48.9162 12.904 48.9162 12.368V9.992C48.9162 9.456 49.0882 9.036 49.4322 8.732C49.7762 8.42 50.2482 8.264 50.8482 8.264C51.5362 8.264 52.0482 8.492 52.3842 8.948V8.3ZM50.0922 13.196C50.3402 13.388 50.6602 13.484 51.0522 13.484C51.4442 13.484 51.7642 13.388 52.0122 13.196C52.2602 12.996 52.3842 12.72 52.3842 12.368V9.992C52.3842 9.632 52.2602 9.356 52.0122 9.164C51.7722 8.972 51.4522 8.876 51.0522 8.876C50.6602 8.876 50.3402 8.972 50.0922 9.164C49.8442 9.356 49.7202 9.632 49.7202 9.992V12.368C49.7202 12.72 49.8442 12.996 50.0922 13.196ZM57.2688 8.264C57.8768 8.264 58.3528 8.416 58.6968 8.72C59.0408 9.024 59.2128 9.444 59.2128 9.98V14H58.4088V9.98C58.4088 9.628 58.2848 9.356 58.0368 9.164C57.7888 8.964 57.4688 8.864 57.0768 8.864C56.6848 8.864 56.3648 8.964 56.1168 9.164C55.8688 9.356 55.7448 9.628 55.7448 9.98V14H54.9168V6.188H55.7448V8.96C56.0808 8.496 56.5888 8.264 57.2688 8.264ZM63.5768 9.056H62.1728V12.32C62.1728 12.656 62.2488 12.904 62.4008 13.064C62.5528 13.216 62.8008 13.292 63.1448 13.292H63.5408V14C63.4128 14.008 63.2328 14.012 63.0008 14.012C62.4408 14.012 62.0288 13.908 61.7648 13.7C61.5088 13.492 61.3768 13.132 61.3688 12.62V9.056H60.5288V8.432H61.3688V6.92H62.1728V8.432H63.5768V9.056Z" fill="#101010"/>
</svg>
