<svg width="17" height="18" viewBox="0 0 17 18" fill="none" xmlns="http://www.w3.org/2000/svg">
<path d="M15.3477 9.58177C15.0458 9.58177 14.7916 9.35139 14.7519 9.04952C14.6561 8.15958 14.3695 7.30076 13.9116 6.53167C13.4538 5.76258 12.8353 5.1013 12.0986 4.59298C11.9698 4.50283 11.8817 4.36555 11.8535 4.21089C11.8252 4.05623 11.8591 3.89667 11.9477 3.76681C12.1383 3.49671 12.5117 3.43316 12.7738 3.61587C13.6498 4.22198 14.3849 5.00969 14.9291 5.9254C15.4733 6.8411 15.8139 7.86329 15.9276 8.92242C15.9594 9.24812 15.729 9.54205 15.3953 9.58177H15.3477ZM1.73972 9.62149H1.67617C1.51916 9.60232 1.37578 9.52276 1.27642 9.39968C1.17707 9.2766 1.12954 9.11966 1.14393 8.96214C1.35841 6.82522 2.4944 4.89484 4.25001 3.64765C4.31416 3.60227 4.38663 3.56997 4.46327 3.5526C4.53991 3.53522 4.61922 3.53311 4.69668 3.54639C4.77413 3.55967 4.84821 3.58807 4.91469 3.62998C4.98117 3.67189 5.03874 3.72648 5.08412 3.79064C5.1295 3.8548 5.1618 3.92726 5.17917 4.0039C5.19654 4.08054 5.19865 4.15985 5.18537 4.23731C5.1721 4.31476 5.14369 4.38884 5.10178 4.45532C5.05988 4.5218 5.00529 4.57937 4.94113 4.62475C4.21128 5.13844 3.60025 5.80285 3.14936 6.57308C2.69846 7.3433 2.41822 8.20136 2.32757 9.08924C2.31369 9.23532 2.24568 9.37093 2.13691 9.46941C2.02813 9.5679 1.88646 9.62214 1.73972 9.62149ZM8.54767 17.1603C7.37197 17.1603 6.25188 16.8902 5.20328 16.3659C5.13328 16.3305 5.07096 16.2817 5.01988 16.2222C4.9688 16.1627 4.92997 16.0937 4.90562 16.0191C4.88126 15.9446 4.87186 15.866 4.87795 15.7878C4.88405 15.7096 4.90552 15.6334 4.94113 15.5636C4.97649 15.4936 5.02532 15.4312 5.08482 15.3802C5.14433 15.3291 5.21333 15.2902 5.28787 15.2659C5.36241 15.2415 5.44102 15.2321 5.51921 15.2382C5.59739 15.2443 5.6736 15.2658 5.74346 15.3014C6.59822 15.7283 7.53912 15.9544 8.4945 15.9627C9.44988 15.971 10.3945 15.7611 11.2566 15.3491C11.5505 15.2061 11.908 15.3332 12.0509 15.6271C12.1939 15.921 12.0668 16.2785 11.7729 16.4215C10.7561 16.914 9.67571 17.1603 8.54767 17.1603ZM8.54767 5.90293C8.1755 5.9093 7.80579 5.84151 7.46009 5.70352C7.11439 5.56552 6.79962 5.36008 6.53414 5.09918C6.26865 4.83827 6.05777 4.52713 5.91378 4.18388C5.7698 3.84063 5.69559 3.47215 5.69548 3.09993C5.69538 2.7277 5.76938 2.35918 5.91317 2.01585C6.05696 1.67252 6.26767 1.36125 6.533 1.1002C6.79834 0.839144 7.11299 0.633527 7.45861 0.495337C7.80423 0.357146 8.17391 0.289147 8.54609 0.295306C9.28153 0.307581 9.98271 0.608326 10.4985 1.13272C11.0143 1.65712 11.3034 2.36318 11.3035 3.09873C11.3036 3.83428 11.0147 4.54042 10.4991 5.06496C9.98342 5.5895 9.28232 5.89045 8.54688 5.90293H8.54767ZM8.54767 1.49405C7.65795 1.49405 6.93506 2.21694 6.93506 3.10666C6.93506 3.99639 7.65795 4.71928 8.54767 4.71928C9.4374 4.71928 10.1603 3.99639 10.1603 3.10666C10.1603 2.21694 9.42945 1.49405 8.54767 1.49405ZM2.80421 15.6192C2.43596 15.6192 2.07131 15.5466 1.73108 15.4057C1.39086 15.2648 1.08173 15.0582 0.821334 14.7978C0.560939 14.5374 0.354382 14.2283 0.213458 13.8881C0.072533 13.5479 0 13.1832 0 12.8149C0 12.4467 0.072533 12.082 0.213458 11.7418C0.354382 11.4016 0.560939 11.0925 0.821334 10.8321C1.08173 10.5717 1.39086 10.3651 1.73108 10.2242C2.07131 10.0833 2.43596 10.0107 2.80421 10.0107C3.54793 10.0107 4.26119 10.3062 4.78708 10.8321C5.31298 11.358 5.60842 12.0712 5.60842 12.8149C5.60842 13.5587 5.31298 14.2719 4.78708 14.7978C4.26119 15.3237 3.54793 15.6192 2.80421 15.6192ZM2.80421 11.2023C1.91449 11.2023 1.19159 11.9252 1.19159 12.8149C1.19159 13.7047 1.91449 14.4276 2.80421 14.4276C3.69393 14.4276 4.41683 13.7047 4.41683 12.8149C4.41683 11.9252 3.69393 11.2023 2.80421 11.2023ZM14.1958 15.6192C13.6412 15.6192 13.099 15.4547 12.6379 15.1466C12.1767 14.8384 11.8173 14.4005 11.6051 13.8881C11.3928 13.3757 11.3373 12.8118 11.4455 12.2679C11.5537 11.7239 11.8208 11.2242 12.2129 10.8321C12.6051 10.4399 13.1048 10.1728 13.6487 10.0646C14.1927 9.95642 14.7565 10.012 15.2689 10.2242C15.7813 10.4364 16.2193 10.7959 16.5274 11.257C16.8356 11.7182 17 12.2603 17 12.8149C16.9921 14.3561 15.7369 15.6192 14.1958 15.6192ZM14.1958 11.2023C13.3061 11.2023 12.5832 11.9252 12.5832 12.8149C12.5832 13.7047 13.3061 14.4276 14.1958 14.4276C15.0855 14.4276 15.8084 13.7047 15.8084 12.8149C15.8068 12.3878 15.6363 11.9786 15.3343 11.6765C15.0322 11.3744 14.623 11.204 14.1958 11.2023Z" fill="#101010"/>
</svg>
