<svg width="202" height="35" viewBox="0 0 202 35" fill="none" xmlns="http://www.w3.org/2000/svg">
<path d="M4.34 10.21C3.25733 10.21 2.394 9.958 1.75 9.454C1.11533 8.95 0.798 8.26867 0.798 7.41V6.976H2.562V7.326C2.562 7.70867 2.73467 8.026 3.08 8.278C3.42533 8.53 3.892 8.656 4.48 8.656C4.97467 8.656 5.34333 8.55333 5.586 8.348C5.838 8.13333 5.964 7.86733 5.964 7.55C5.964 7.17667 5.726 6.85933 5.25 6.598C5.04467 6.486 4.606 6.29 3.934 6.01C2.96333 5.62733 2.30533 5.31 1.96 5.058C1.26933 4.554 0.924 3.896 0.924 3.084C0.924 2.272 1.22267 1.628 1.82 1.152C2.41733 0.676 3.206 0.438 4.186 0.438C5.21267 0.438 6.05267 0.704 6.706 1.236C7.35933 1.75867 7.686 2.44933 7.686 3.308V3.658H5.922V3.392C5.922 3 5.75867 2.66867 5.432 2.398C5.10533 2.12733 4.66667 1.992 4.116 1.992C3.668 1.992 3.318 2.08533 3.066 2.272C2.814 2.44933 2.688 2.71067 2.688 3.056C2.688 3.41067 2.83733 3.69067 3.136 3.896C3.444 4.10133 4.00867 4.34867 4.83 4.638C5.194 4.76867 5.46467 4.87133 5.642 4.946C5.81933 5.02067 6.06667 5.14667 6.384 5.324C6.70133 5.50133 6.93933 5.67867 7.098 5.856C7.266 6.024 7.41533 6.25267 7.546 6.542C7.686 6.83133 7.756 7.14867 7.756 7.494C7.756 8.334 7.44333 8.99667 6.818 9.482C6.202 9.96733 5.376 10.21 4.34 10.21ZM10.6749 2.244C10.3856 2.244 10.1382 2.14133 9.93289 1.936C9.73689 1.73067 9.63889 1.48333 9.63889 1.194C9.63889 0.914 9.73689 0.676 9.93289 0.48C10.1382 0.284 10.3856 0.186 10.6749 0.186C10.9549 0.186 11.1929 0.284 11.3889 0.48C11.5942 0.676 11.6969 0.914 11.6969 1.194C11.6969 1.48333 11.5942 1.73067 11.3889 1.936C11.1929 2.14133 10.9549 2.244 10.6749 2.244ZM9.72289 10V3.042H11.5289V10H9.72289ZM21.0562 2.958C21.8589 2.958 22.4562 3.16333 22.8482 3.574C23.2496 3.98467 23.4502 4.554 23.4502 5.282V10H21.7282V5.282C21.7282 4.96467 21.6209 4.71267 21.4062 4.526C21.2009 4.33 20.9349 4.232 20.6082 4.232C20.2722 4.232 20.0016 4.33 19.7962 4.526C19.6002 4.71267 19.5022 4.96467 19.5022 5.282V10H17.7802V5.282C17.7802 4.96467 17.6729 4.71267 17.4582 4.526C17.2529 4.33 16.9869 4.232 16.6602 4.232C16.3242 4.232 16.0536 4.33 15.8482 4.526C15.6522 4.71267 15.5542 4.96467 15.5542 5.282V10H13.7482V3.042H15.5542V3.588C15.9462 3.168 16.4642 2.958 17.1082 2.958C18.1349 2.958 18.8349 3.29867 19.2082 3.98C19.5909 3.29867 20.2069 2.958 21.0562 2.958ZM26.589 2.244C26.2996 2.244 26.0523 2.14133 25.847 1.936C25.651 1.73067 25.553 1.48333 25.553 1.194C25.553 0.914 25.651 0.676 25.847 0.48C26.0523 0.284 26.2996 0.186 26.589 0.186C26.869 0.186 27.107 0.284 27.303 0.48C27.5083 0.676 27.611 0.914 27.611 1.194C27.611 1.48333 27.5083 1.73067 27.303 1.936C27.107 2.14133 26.869 2.244 26.589 2.244ZM25.637 10V3.042H27.443V10H25.637ZM31.4683 8.46H32.4623V10H29.6763V0.535999H31.4683V8.46ZM36.6775 2.972C37.5548 2.972 38.2735 3.19133 38.8335 3.63C39.3935 4.05933 39.6735 4.60533 39.6735 5.268V10H37.8675V8.964C37.5782 9.72933 36.9202 10.112 35.8935 10.112C35.2028 10.112 34.6475 9.94867 34.2275 9.622C33.8075 9.29533 33.5975 8.81467 33.5975 8.18C33.5975 7.51733 33.8355 7.004 34.3115 6.64C34.7968 6.26667 35.4875 6.08 36.3835 6.08H37.8675V5.576C37.8675 5.24933 37.7648 4.99267 37.5595 4.806C37.3542 4.61933 37.0648 4.526 36.6915 4.526C36.3742 4.526 36.1082 4.596 35.8935 4.736C35.6882 4.86667 35.5762 5.044 35.5575 5.268L33.7515 5.03C33.7795 4.442 34.0642 3.952 34.6055 3.56C35.1562 3.168 35.8468 2.972 36.6775 2.972ZM36.4255 8.852C36.8268 8.852 37.1675 8.754 37.4475 8.558C37.7275 8.35267 37.8675 8.068 37.8675 7.704V7.004H36.7755C36.3368 7.004 35.9962 7.088 35.7535 7.256C35.5202 7.424 35.4035 7.662 35.4035 7.97C35.4035 8.23133 35.4922 8.446 35.6695 8.614C35.8468 8.77267 36.0988 8.852 36.4255 8.852ZM45.3739 3.056C45.7006 3.056 45.9852 3.13533 46.2279 3.294L45.9199 4.974C45.7332 4.82467 45.4252 4.78733 44.9959 4.862C44.6692 4.89 44.3846 5.02533 44.1419 5.268C43.9086 5.51067 43.7872 5.814 43.7779 6.178V10H41.9719V3.042H43.7779V4.26C44.1886 3.45733 44.7206 3.056 45.3739 3.056ZM57.2283 0.535999V2.076H54.6803V10H52.8743V2.076H50.0463V0.535999H57.2283ZM62.8823 9.412C62.313 9.888 61.599 10.126 60.7403 10.126C59.8816 10.126 59.1676 9.888 58.5983 9.412C58.029 8.936 57.7443 8.348 57.7443 7.648V5.394C57.7443 4.71267 58.0336 4.13867 58.6123 3.672C59.2003 3.196 59.9096 2.958 60.7403 2.958C61.5803 2.958 62.2896 3.196 62.8683 3.672C63.447 4.13867 63.7363 4.71267 63.7363 5.394V7.648C63.7363 8.348 63.4516 8.936 62.8823 9.412ZM60.7403 8.698C61.151 8.698 61.4636 8.59067 61.6783 8.376C61.893 8.152 62.0003 7.872 62.0003 7.536V5.506C62.0003 5.20733 61.8836 4.95067 61.6503 4.736C61.4263 4.512 61.123 4.4 60.7403 4.4C60.367 4.4 60.059 4.512 59.8163 4.736C59.583 4.96 59.4663 5.21667 59.4663 5.506V7.536C59.4663 7.86267 59.5783 8.138 59.8023 8.362C60.0263 8.586 60.339 8.698 60.7403 8.698ZM72.8075 0.535999C73.6942 0.535999 74.4082 0.801999 74.9495 1.334C75.4909 1.85667 75.7615 2.55667 75.7615 3.434C75.7615 4.28333 75.4815 4.96933 74.9215 5.492C74.3615 6.00533 73.6289 6.262 72.7235 6.262H70.6655V10H68.8735V0.535999H72.8075ZM72.5275 4.82C72.9569 4.82 73.3022 4.694 73.5635 4.442C73.8342 4.19 73.9695 3.86333 73.9695 3.462C73.9695 3.05133 73.8342 2.72 73.5635 2.468C73.3022 2.20667 72.9569 2.076 72.5275 2.076H70.6655V4.82H72.5275ZM78.8003 8.46H79.7943V10H77.0083V0.535999H78.8003V8.46ZM84.0095 2.972C84.8868 2.972 85.6055 3.19133 86.1655 3.63C86.7255 4.05933 87.0055 4.60533 87.0055 5.268V10H85.1995V8.964C84.9102 9.72933 84.2522 10.112 83.2255 10.112C82.5348 10.112 81.9795 9.94867 81.5595 9.622C81.1395 9.29533 80.9295 8.81467 80.9295 8.18C80.9295 7.51733 81.1675 7.004 81.6435 6.64C82.1288 6.26667 82.8195 6.08 83.7155 6.08H85.1995V5.576C85.1995 5.24933 85.0968 4.99267 84.8915 4.806C84.6862 4.61933 84.3968 4.526 84.0235 4.526C83.7062 4.526 83.4402 4.596 83.2255 4.736C83.0202 4.86667 82.9082 5.044 82.8895 5.268L81.0835 5.03C81.1115 4.442 81.3962 3.952 81.9375 3.56C82.4882 3.168 83.1788 2.972 84.0095 2.972ZM83.7575 8.852C84.1588 8.852 84.4995 8.754 84.7795 8.558C85.0595 8.35267 85.1995 8.068 85.1995 7.704V7.004H84.1075C83.6688 7.004 83.3282 7.088 83.0855 7.256C82.8522 7.424 82.7355 7.662 82.7355 7.97C82.7355 8.23133 82.8242 8.446 83.0015 8.614C83.1788 8.77267 83.4308 8.852 83.7575 8.852ZM91.8311 10.098C91.1218 10.098 90.5058 9.92067 89.9831 9.566C89.4605 9.21133 89.0918 8.72133 88.8771 8.096C88.7185 7.648 88.6391 7.116 88.6391 6.5C88.6391 5.89333 88.7185 5.366 88.8771 4.918C89.0825 4.31133 89.4465 3.83533 89.9691 3.49C90.5011 3.13533 91.1218 2.958 91.8311 2.958C92.5405 2.958 93.1658 3.14 93.7071 3.504C94.2485 3.85867 94.6031 4.30667 94.7711 4.848C94.8085 4.94133 94.8365 5.03467 94.8551 5.128C94.8738 5.212 94.8831 5.28667 94.8831 5.352C94.8925 5.408 94.8971 5.44067 94.8971 5.45L93.1331 5.73C93.1145 5.59933 93.0911 5.478 93.0631 5.366C92.9978 5.114 92.8485 4.90867 92.6151 4.75C92.3911 4.59133 92.1251 4.512 91.8171 4.512C91.1825 4.512 90.7765 4.80133 90.5991 5.38C90.5058 5.66 90.4591 6.038 90.4591 6.514C90.4591 6.99933 90.5058 7.37733 90.5991 7.648C90.7765 8.24533 91.1825 8.544 91.8171 8.544C92.1251 8.544 92.3911 8.46933 92.6151 8.32C92.8391 8.16133 92.9885 7.93733 93.0631 7.648C93.0818 7.57333 93.0911 7.48933 93.0911 7.396L94.8691 7.69C94.8691 7.83933 94.8365 8.00267 94.7711 8.18C94.5845 8.78667 94.2205 9.258 93.6791 9.594C93.1471 9.93 92.5311 10.098 91.8311 10.098ZM102.497 6.962H98.0867V7.368C98.0867 7.71333 98.2174 8.00733 98.4787 8.25C98.7494 8.48333 99.0714 8.6 99.4447 8.6C99.7807 8.6 100.07 8.516 100.313 8.348C100.555 8.18 100.709 7.96533 100.775 7.704L102.343 8.026C102.24 8.62333 101.923 9.118 101.391 9.51C100.859 9.902 100.21 10.098 99.4447 10.098C98.6421 10.098 97.9467 9.86467 97.3587 9.398C96.7707 8.922 96.4767 8.26867 96.4767 7.438V5.604C96.4767 4.82933 96.7567 4.19 97.3167 3.686C97.8767 3.17267 98.5814 2.916 99.4307 2.916C100.289 2.916 101.013 3.17267 101.601 3.686C102.198 4.19 102.497 4.82933 102.497 5.604V6.962ZM99.4307 4.428C99.0667 4.428 98.7494 4.54467 98.4787 4.778C98.2174 5.01133 98.0867 5.31 98.0867 5.674V5.996L100.817 5.982V5.674C100.817 5.31 100.681 5.01133 100.411 4.778C100.14 4.54467 99.8134 4.428 99.4307 4.428Z" fill="#101010"/>
<path d="M0.852 33V24.984H2.16V33H0.852ZM6.54 27.06C7.196 27.06 7.696 27.232 8.04 27.576C8.384 27.912 8.556 28.376 8.556 28.968V33H7.308V28.968C7.308 28.672 7.204 28.436 6.996 28.26C6.796 28.084 6.536 27.996 6.216 27.996C5.896 27.996 5.636 28.084 5.436 28.26C5.244 28.428 5.148 28.664 5.148 28.968V33H3.84V27.12H5.148V27.648C5.492 27.256 5.956 27.06 6.54 27.06ZM18.5678 24.984V26.1H16.3358V33H15.0278V26.1H12.6038V24.984H18.5678ZM24.0064 30.6L20.2384 30.612V30.84C20.2384 31.176 20.3624 31.452 20.6104 31.668C20.8584 31.884 21.1584 31.992 21.5104 31.992C21.8144 31.992 22.0824 31.916 22.3144 31.764C22.5464 31.604 22.6904 31.404 22.7464 31.164L23.8864 31.392C23.7984 31.872 23.5344 32.272 23.0944 32.592C22.6544 32.912 22.1264 33.072 21.5104 33.072C20.8464 33.072 20.2744 32.88 19.7944 32.496C19.3144 32.112 19.0744 31.576 19.0744 30.888V29.244C19.0744 28.604 19.3064 28.076 19.7704 27.66C20.2344 27.244 20.8064 27.036 21.4864 27.036C22.1904 27.036 22.7864 27.244 23.2744 27.66C23.7624 28.076 24.0064 28.604 24.0064 29.244V30.6ZM21.4864 28.14C21.1504 28.14 20.8584 28.248 20.6104 28.464C20.3624 28.68 20.2384 28.956 20.2384 29.292V29.676L22.7824 29.664V29.292C22.7824 28.948 22.6544 28.672 22.3984 28.464C22.1504 28.248 21.8464 28.14 21.4864 28.14ZM28.6338 27.144C28.9298 27.144 29.1698 27.208 29.3538 27.336L29.1258 28.56C28.9578 28.44 28.7058 28.404 28.3698 28.452C28.0578 28.476 27.7898 28.604 27.5658 28.836C27.3498 29.06 27.2378 29.348 27.2298 29.7V33H25.9218V27.12H27.2298V28.236C27.5658 27.508 28.0338 27.144 28.6338 27.144ZM36.503 27.06C37.159 27.06 37.659 27.232 38.003 27.576C38.347 27.912 38.519 28.376 38.519 28.968V33H37.259V28.968C37.259 28.664 37.159 28.428 36.959 28.26C36.759 28.084 36.499 27.996 36.179 27.996C35.859 27.996 35.599 28.084 35.399 28.26C35.199 28.428 35.099 28.664 35.099 28.968V33H33.851V28.968C33.851 28.672 33.747 28.436 33.539 28.26C33.339 28.084 33.079 27.996 32.759 27.996C32.439 27.996 32.179 28.084 31.979 28.26C31.787 28.428 31.691 28.664 31.691 28.968V33H30.383V27.12H31.691V27.648C32.035 27.256 32.499 27.06 33.083 27.06C33.979 27.06 34.579 27.364 34.883 27.972C35.203 27.364 35.743 27.06 36.503 27.06ZM42.4956 33.048C41.7916 33.048 41.2196 32.884 40.7796 32.556C40.3476 32.228 40.1316 31.8 40.1316 31.272V31.14H41.3436V31.308C41.3436 31.532 41.4516 31.716 41.6676 31.86C41.8836 32.004 42.1556 32.076 42.4836 32.076C42.7956 32.076 43.0476 32.012 43.2396 31.884C43.4396 31.748 43.5396 31.572 43.5396 31.356C43.5396 31.164 43.4476 31.02 43.2636 30.924C43.0796 30.82 42.7876 30.72 42.3876 30.624C41.9876 30.52 41.6836 30.424 41.4756 30.336C41.0516 30.176 40.7236 29.984 40.4916 29.76C40.2596 29.536 40.1436 29.228 40.1436 28.836C40.1436 28.3 40.3516 27.876 40.7676 27.564C41.1916 27.244 41.7476 27.084 42.4356 27.084C43.1316 27.084 43.6916 27.248 44.1156 27.576C44.5476 27.896 44.7636 28.324 44.7636 28.86V28.98H43.5396V28.86C43.5396 28.636 43.4356 28.452 43.2276 28.308C43.0276 28.164 42.7676 28.092 42.4476 28.092C42.1356 28.092 41.8796 28.16 41.6796 28.296C41.4876 28.424 41.3916 28.596 41.3916 28.812C41.3916 28.924 41.4236 29.02 41.4876 29.1C41.5596 29.18 41.6636 29.248 41.7996 29.304C41.9356 29.36 42.0716 29.408 42.2076 29.448C42.3516 29.488 42.5316 29.536 42.7476 29.592C42.9716 29.648 43.1596 29.7 43.3116 29.748C43.7996 29.908 44.1756 30.108 44.4396 30.348C44.7116 30.58 44.8476 30.904 44.8476 31.32C44.8476 31.864 44.6356 32.288 44.2116 32.592C43.7876 32.896 43.2156 33.048 42.4956 33.048ZM52.3062 33.168C51.4502 33.168 50.7462 32.924 50.1942 32.436C49.6422 31.94 49.3662 31.348 49.3662 30.66V27.444C49.3662 26.756 49.6422 26.164 50.1942 25.668C50.7462 25.172 51.4502 24.924 52.3062 24.924C53.1782 24.924 53.8862 25.172 54.4302 25.668C54.9742 26.164 55.2462 26.756 55.2462 27.444V30.66C55.2462 31.348 54.9742 31.94 54.4302 32.436C53.8862 32.924 53.1782 33.168 52.3062 33.168ZM52.3062 32.052C52.7862 32.052 53.1662 31.912 53.4462 31.632C53.7342 31.352 53.8782 31.048 53.8782 30.72V27.312C53.8782 26.992 53.7382 26.7 53.4582 26.436C53.1782 26.172 52.7942 26.04 52.3062 26.04C51.8342 26.04 51.4502 26.172 51.1542 26.436C50.8662 26.7 50.7222 26.992 50.7222 27.312V30.72C50.7222 31.04 50.8662 31.344 51.1542 31.632C51.4502 31.912 51.8342 32.052 52.3062 32.052ZM59.3391 25.872C59.0271 25.88 58.8111 25.96 58.6911 26.112C58.5711 26.264 58.5111 26.496 58.5111 26.808V27.888H59.8431V28.86H58.5111V33H57.2151V28.86H56.3631V27.888H57.2151V26.7C57.2151 26.076 57.3751 25.628 57.6951 25.356C58.0151 25.084 58.5631 24.96 59.3391 24.984H59.8431V25.872H59.3391ZM63.9575 33V24.984H65.2655V31.872H69.2975V33H63.9575ZM74.5442 32.52C74.0882 32.904 73.5042 33.096 72.7922 33.096C72.0802 33.096 71.4922 32.904 71.0282 32.52C70.5642 32.128 70.3322 31.644 70.3322 31.068V29.076C70.3322 28.516 70.5682 28.04 71.0402 27.648C71.5202 27.256 72.1042 27.06 72.7922 27.06C73.4802 27.06 74.0602 27.256 74.5322 27.648C75.0042 28.032 75.2402 28.508 75.2402 29.076V31.068C75.2402 31.644 75.0082 32.128 74.5442 32.52ZM71.8922 31.764C72.1082 31.964 72.4082 32.064 72.7922 32.064C73.1762 32.064 73.4722 31.964 73.6802 31.764C73.8882 31.556 73.9922 31.296 73.9922 30.984V29.16C73.9922 28.872 73.8802 28.628 73.6562 28.428C73.4402 28.22 73.1522 28.116 72.7922 28.116C72.4402 28.116 72.1482 28.22 71.9162 28.428C71.6922 28.628 71.5802 28.872 71.5802 29.16V30.984C71.5802 31.296 71.6842 31.556 71.8922 31.764ZM80.8675 32.664C80.4275 32.936 79.9155 33.072 79.3315 33.072C78.7475 33.072 78.2395 32.928 77.8075 32.64C77.3835 32.344 77.0835 31.936 76.9075 31.416C76.7875 31.056 76.7275 30.6 76.7275 30.048C76.7275 29.576 76.7875 29.124 76.9075 28.692C77.0755 28.188 77.3755 27.792 77.8075 27.504C78.2395 27.216 78.7475 27.072 79.3315 27.072C79.9155 27.072 80.4275 27.22 80.8675 27.516C81.3075 27.804 81.5995 28.172 81.7435 28.62C81.7675 28.692 81.7875 28.764 81.8035 28.836C81.8195 28.908 81.8275 28.972 81.8275 29.028C81.8355 29.076 81.8395 29.104 81.8395 29.112L80.5555 29.304C80.5395 29.2 80.5195 29.104 80.4955 29.016C80.4395 28.776 80.3035 28.58 80.0875 28.428C79.8715 28.268 79.6155 28.188 79.3195 28.188C79.0235 28.188 78.7715 28.264 78.5635 28.416C78.3635 28.568 78.2315 28.776 78.1675 29.04C78.0875 29.248 78.0475 29.588 78.0475 30.06C78.0475 30.5 78.0835 30.84 78.1555 31.08C78.2275 31.352 78.3635 31.568 78.5635 31.728C78.7715 31.88 79.0235 31.956 79.3195 31.956C79.6155 31.956 79.8715 31.88 80.0875 31.728C80.3035 31.576 80.4395 31.372 80.4955 31.116L80.5315 30.9L81.8155 31.104C81.8155 31.224 81.7915 31.356 81.7435 31.5C81.5995 31.996 81.3075 32.384 80.8675 32.664ZM85.6937 27.084C86.4137 27.084 86.9977 27.264 87.4457 27.624C87.8937 27.976 88.1177 28.44 88.1177 29.016V33H86.8097V32.088C86.5537 32.76 85.9777 33.096 85.0817 33.096C84.5057 33.096 84.0377 32.96 83.6777 32.688C83.3257 32.416 83.1497 32.012 83.1497 31.476C83.1497 30.924 83.3537 30.492 83.7617 30.18C84.1697 29.868 84.7497 29.712 85.5017 29.712H86.8097V29.232C86.8097 28.912 86.7097 28.664 86.5097 28.488C86.3177 28.304 86.0457 28.212 85.6937 28.212C85.3897 28.212 85.1377 28.276 84.9377 28.404C84.7457 28.532 84.6377 28.7 84.6137 28.908L83.3057 28.752C83.3377 28.272 83.5737 27.876 84.0137 27.564C84.4617 27.244 85.0217 27.084 85.6937 27.084ZM85.4537 32.172C85.8297 32.172 86.1497 32.08 86.4137 31.896C86.6777 31.712 86.8097 31.448 86.8097 31.104V30.396H85.7777C85.3617 30.396 85.0377 30.476 84.8057 30.636C84.5737 30.796 84.4577 31.024 84.4577 31.32C84.4577 31.584 84.5457 31.792 84.7217 31.944C84.8977 32.096 85.1417 32.172 85.4537 32.172ZM92.7493 28.224H91.3933V31.044C91.3933 31.612 91.6613 31.896 92.1973 31.896H92.6653V33C92.3293 33.016 92.0893 33.024 91.9453 33.024C91.3293 33.024 90.8773 32.92 90.5893 32.712C90.3013 32.496 90.1533 32.112 90.1453 31.56V28.224H89.2933V27.252H90.1453V25.644H91.3933V27.252H92.7493V28.224ZM94.9295 26.352C94.7055 26.352 94.5135 26.276 94.3535 26.124C94.2015 25.964 94.1255 25.768 94.1255 25.536C94.1255 25.32 94.2015 25.136 94.3535 24.984C94.5135 24.824 94.7055 24.744 94.9295 24.744C95.1455 24.744 95.3335 24.824 95.4935 24.984C95.6535 25.136 95.7335 25.32 95.7335 25.536C95.7335 25.76 95.6535 25.952 95.4935 26.112C95.3335 26.272 95.1455 26.352 94.9295 26.352ZM94.2455 33V27.12H95.5535V33H94.2455ZM101.65 32.52C101.194 32.904 100.61 33.096 99.8977 33.096C99.1857 33.096 98.5977 32.904 98.1337 32.52C97.6697 32.128 97.4377 31.644 97.4377 31.068V29.076C97.4377 28.516 97.6737 28.04 98.1457 27.648C98.6257 27.256 99.2097 27.06 99.8977 27.06C100.586 27.06 101.166 27.256 101.638 27.648C102.11 28.032 102.346 28.508 102.346 29.076V31.068C102.346 31.644 102.114 32.128 101.65 32.52ZM98.9977 31.764C99.2137 31.964 99.5137 32.064 99.8977 32.064C100.282 32.064 100.578 31.964 100.786 31.764C100.994 31.556 101.098 31.296 101.098 30.984V29.16C101.098 28.872 100.986 28.628 100.762 28.428C100.546 28.22 100.258 28.116 99.8977 28.116C99.5457 28.116 99.2537 28.22 99.0217 28.428C98.7977 28.628 98.6857 28.872 98.6857 29.16V30.984C98.6857 31.296 98.7897 31.556 98.9977 31.764ZM106.724 27.06C107.38 27.06 107.88 27.232 108.224 27.576C108.568 27.912 108.74 28.376 108.74 28.968V33H107.492V28.968C107.492 28.672 107.388 28.436 107.18 28.26C106.98 28.084 106.72 27.996 106.4 27.996C106.08 27.996 105.82 28.084 105.62 28.26C105.428 28.428 105.332 28.664 105.332 28.968V33H104.024V27.12H105.332V27.648C105.676 27.256 106.14 27.06 106.724 27.06ZM109.99 34.068L110.302 31.26H111.466L110.854 34.068H109.99ZM118.948 24.984C119.676 24.984 120.26 25.204 120.7 25.644C121.14 26.076 121.36 26.652 121.36 27.372C121.36 28.076 121.132 28.644 120.676 29.076C120.228 29.5 119.632 29.712 118.888 29.712H116.992V33H115.684V24.984H118.948ZM118.756 28.656C119.148 28.656 119.464 28.54 119.704 28.308C119.944 28.076 120.064 27.772 120.064 27.396C120.064 27.004 119.944 26.692 119.704 26.46C119.464 26.22 119.148 26.1 118.756 26.1H116.992V28.656H118.756ZM125.337 27.144C125.633 27.144 125.873 27.208 126.057 27.336L125.829 28.56C125.661 28.44 125.409 28.404 125.073 28.452C124.761 28.476 124.493 28.604 124.269 28.836C124.053 29.06 123.941 29.348 123.933 29.7V33H122.625V27.12H123.933V28.236C124.269 27.508 124.737 27.144 125.337 27.144ZM128.07 26.352C127.846 26.352 127.654 26.276 127.494 26.124C127.342 25.964 127.266 25.768 127.266 25.536C127.266 25.32 127.342 25.136 127.494 24.984C127.654 24.824 127.846 24.744 128.07 24.744C128.286 24.744 128.474 24.824 128.634 24.984C128.794 25.136 128.874 25.32 128.874 25.536C128.874 25.76 128.794 25.952 128.634 26.112C128.474 26.272 128.286 26.352 128.07 26.352ZM127.386 33V27.12H128.694V33H127.386ZM134.586 32.664C134.146 32.936 133.634 33.072 133.05 33.072C132.466 33.072 131.958 32.928 131.526 32.64C131.102 32.344 130.802 31.936 130.626 31.416C130.506 31.056 130.446 30.6 130.446 30.048C130.446 29.576 130.506 29.124 130.626 28.692C130.794 28.188 131.094 27.792 131.526 27.504C131.958 27.216 132.466 27.072 133.05 27.072C133.634 27.072 134.146 27.22 134.586 27.516C135.026 27.804 135.318 28.172 135.462 28.62C135.486 28.692 135.506 28.764 135.522 28.836C135.538 28.908 135.546 28.972 135.546 29.028C135.554 29.076 135.558 29.104 135.558 29.112L134.274 29.304C134.258 29.2 134.238 29.104 134.214 29.016C134.158 28.776 134.022 28.58 133.806 28.428C133.59 28.268 133.334 28.188 133.038 28.188C132.742 28.188 132.49 28.264 132.282 28.416C132.082 28.568 131.95 28.776 131.886 29.04C131.806 29.248 131.766 29.588 131.766 30.06C131.766 30.5 131.802 30.84 131.874 31.08C131.946 31.352 132.082 31.568 132.282 31.728C132.49 31.88 132.742 31.956 133.038 31.956C133.334 31.956 133.59 31.88 133.806 31.728C134.022 31.576 134.158 31.372 134.214 31.116L134.25 30.9L135.534 31.104C135.534 31.224 135.51 31.356 135.462 31.5C135.318 31.996 135.026 32.384 134.586 32.664ZM141.92 30.6L138.152 30.612V30.84C138.152 31.176 138.276 31.452 138.524 31.668C138.772 31.884 139.072 31.992 139.424 31.992C139.728 31.992 139.996 31.916 140.228 31.764C140.46 31.604 140.604 31.404 140.66 31.164L141.8 31.392C141.712 31.872 141.448 32.272 141.008 32.592C140.568 32.912 140.04 33.072 139.424 33.072C138.76 33.072 138.188 32.88 137.708 32.496C137.228 32.112 136.988 31.576 136.988 30.888V29.244C136.988 28.604 137.22 28.076 137.684 27.66C138.148 27.244 138.72 27.036 139.4 27.036C140.104 27.036 140.7 27.244 141.188 27.66C141.676 28.076 141.92 28.604 141.92 29.244V30.6ZM139.4 28.14C139.064 28.14 138.772 28.248 138.524 28.464C138.276 28.68 138.152 28.956 138.152 29.292V29.676L140.696 29.664V29.292C140.696 28.948 140.568 28.672 140.312 28.464C140.064 28.248 139.76 28.14 139.4 28.14ZM151.305 33L150.765 31.26H147.825L147.297 33H145.893L148.473 24.984H150.117L152.697 33H151.305ZM148.125 30.264H150.453L149.289 26.484L148.125 30.264ZM156.493 27.06C157.149 27.06 157.649 27.232 157.993 27.576C158.337 27.912 158.509 28.376 158.509 28.968V33H157.261V28.968C157.261 28.672 157.157 28.436 156.949 28.26C156.749 28.084 156.489 27.996 156.169 27.996C155.849 27.996 155.589 28.084 155.389 28.26C155.197 28.428 155.101 28.664 155.101 28.968V33H153.793V27.12H155.101V27.648C155.445 27.256 155.909 27.06 156.493 27.06ZM163.708 24.984H165.016V33H163.708V32.388C163.364 32.86 162.864 33.096 162.208 33.096C161.552 33.096 161.052 32.928 160.708 32.592C160.364 32.256 160.192 31.792 160.192 31.2V28.968C160.192 28.376 160.364 27.912 160.708 27.576C161.052 27.232 161.548 27.06 162.196 27.06C162.86 27.06 163.364 27.3 163.708 27.78V24.984ZM163.6 31.2V28.968C163.6 28.664 163.5 28.428 163.3 28.26C163.108 28.084 162.848 27.996 162.52 27.996C162.208 27.996 161.948 28.084 161.74 28.26C161.54 28.428 161.44 28.664 161.44 28.968V31.2C161.44 31.496 161.54 31.732 161.74 31.908C161.948 32.076 162.212 32.16 162.532 32.16C162.852 32.16 163.108 32.076 163.3 31.908C163.5 31.732 163.6 31.496 163.6 31.2ZM172.925 24.984C173.653 24.984 174.237 25.204 174.677 25.644C175.117 26.076 175.337 26.652 175.337 27.372C175.337 28.076 175.109 28.644 174.653 29.076C174.205 29.5 173.609 29.712 172.865 29.712H170.969V33H169.661V24.984H172.925ZM172.733 28.656C173.125 28.656 173.441 28.54 173.681 28.308C173.921 28.076 174.041 27.772 174.041 27.396C174.041 27.004 173.921 26.692 173.681 26.46C173.441 26.22 173.125 26.1 172.733 26.1H170.969V28.656H172.733ZM180.657 32.52C180.201 32.904 179.617 33.096 178.905 33.096C178.193 33.096 177.605 32.904 177.141 32.52C176.677 32.128 176.445 31.644 176.445 31.068V29.076C176.445 28.516 176.681 28.04 177.153 27.648C177.633 27.256 178.217 27.06 178.905 27.06C179.593 27.06 180.173 27.256 180.645 27.648C181.117 28.032 181.353 28.508 181.353 29.076V31.068C181.353 31.644 181.121 32.128 180.657 32.52ZM178.005 31.764C178.221 31.964 178.521 32.064 178.905 32.064C179.289 32.064 179.585 31.964 179.793 31.764C180.001 31.556 180.105 31.296 180.105 30.984V29.16C180.105 28.872 179.993 28.628 179.769 28.428C179.553 28.22 179.265 28.116 178.905 28.116C178.553 28.116 178.261 28.22 178.029 28.428C177.805 28.628 177.693 28.872 177.693 29.16V30.984C177.693 31.296 177.797 31.556 178.005 31.764ZM184.027 26.352C183.803 26.352 183.611 26.276 183.451 26.124C183.299 25.964 183.223 25.768 183.223 25.536C183.223 25.32 183.299 25.136 183.451 24.984C183.611 24.824 183.803 24.744 184.027 24.744C184.243 24.744 184.431 24.824 184.591 24.984C184.751 25.136 184.831 25.32 184.831 25.536C184.831 25.76 184.751 25.952 184.591 26.112C184.431 26.272 184.243 26.352 184.027 26.352ZM183.343 33V27.12H184.651V33H183.343ZM189.353 27.06C190.009 27.06 190.509 27.232 190.853 27.576C191.197 27.912 191.369 28.376 191.369 28.968V33H190.121V28.968C190.121 28.672 190.017 28.436 189.809 28.26C189.609 28.084 189.349 27.996 189.029 27.996C188.709 27.996 188.449 28.084 188.249 28.26C188.057 28.428 187.961 28.664 187.961 28.968V33H186.653V27.12H187.961V27.648C188.305 27.256 188.769 27.06 189.353 27.06ZM196.015 28.224H194.659V31.044C194.659 31.612 194.927 31.896 195.463 31.896H195.931V33C195.595 33.016 195.355 33.024 195.211 33.024C194.595 33.024 194.143 32.92 193.855 32.712C193.567 32.496 193.419 32.112 193.411 31.56V28.224H192.559V27.252H193.411V25.644H194.659V27.252H196.015V28.224ZM199.515 33.048C198.811 33.048 198.239 32.884 197.799 32.556C197.367 32.228 197.151 31.8 197.151 31.272V31.14H198.363V31.308C198.363 31.532 198.471 31.716 198.687 31.86C198.903 32.004 199.175 32.076 199.503 32.076C199.815 32.076 200.067 32.012 200.259 31.884C200.459 31.748 200.559 31.572 200.559 31.356C200.559 31.164 200.467 31.02 200.283 30.924C200.099 30.82 199.807 30.72 199.407 30.624C199.007 30.52 198.703 30.424 198.495 30.336C198.071 30.176 197.743 29.984 197.511 29.76C197.279 29.536 197.163 29.228 197.163 28.836C197.163 28.3 197.371 27.876 197.787 27.564C198.211 27.244 198.767 27.084 199.455 27.084C200.151 27.084 200.711 27.248 201.135 27.576C201.567 27.896 201.783 28.324 201.783 28.86V28.98H200.559V28.86C200.559 28.636 200.455 28.452 200.247 28.308C200.047 28.164 199.787 28.092 199.467 28.092C199.155 28.092 198.899 28.16 198.699 28.296C198.507 28.424 198.411 28.596 198.411 28.812C198.411 28.924 198.443 29.02 198.507 29.1C198.579 29.18 198.683 29.248 198.819 29.304C198.955 29.36 199.091 29.408 199.227 29.448C199.371 29.488 199.551 29.536 199.767 29.592C199.991 29.648 200.179 29.7 200.331 29.748C200.819 29.908 201.195 30.108 201.459 30.348C201.731 30.58 201.867 30.904 201.867 31.32C201.867 31.864 201.655 32.288 201.231 32.592C200.807 32.896 200.235 33.048 199.515 33.048Z" fill="#ADAFAE"/>
</svg>
