<svg width="36" height="18" viewBox="0 0 36 18" fill="none" xmlns="http://www.w3.org/2000/svg">
<path d="M14.1887 6.51714L10.2215 5.94058L8.4481 2.34527C8.39966 2.24683 8.31998 2.16714 8.22154 2.11871C7.97466 1.99683 7.67466 2.09839 7.55123 2.34527L5.77779 5.94058L1.8106 6.51714C1.70123 6.53277 1.60123 6.58433 1.52466 6.66246C1.4321 6.75759 1.3811 6.88558 1.38286 7.0183C1.38461 7.15102 1.43899 7.27762 1.53404 7.37027L4.40435 10.1687L3.72623 14.1203C3.71032 14.2122 3.7205 14.3067 3.75559 14.3932C3.79068 14.4796 3.84929 14.5545 3.92477 14.6093C4.00025 14.6641 4.08958 14.6967 4.18263 14.7033C4.27568 14.71 4.36873 14.6904 4.45123 14.6468L7.99966 12.7812L11.5481 14.6468C11.645 14.6984 11.7575 14.7156 11.8653 14.6968C12.1372 14.65 12.32 14.3921 12.2731 14.1203L11.595 10.1687L14.4653 7.37027C14.5434 7.29371 14.595 7.19371 14.6106 7.08433C14.6528 6.81089 14.4622 6.55777 14.1887 6.51714Z" fill="#FEC30D"/>
<path d="M25.5215 9.95898V11.084H19.3691L19.3223 10.2344L23.002 4.46875H24.1328L22.9082 6.56641L20.793 9.95898H25.5215ZM24.4551 4.46875V13H23.043V4.46875H24.4551ZM26.6055 12.2969C26.6055 12.0781 26.6797 11.8945 26.8281 11.7461C26.9766 11.5938 27.1777 11.5176 27.4316 11.5176C27.6895 11.5176 27.8906 11.5938 28.0352 11.7461C28.1836 11.8945 28.2578 12.0781 28.2578 12.2969C28.2578 12.5156 28.1836 12.6992 28.0352 12.8477C27.8906 12.9961 27.6895 13.0703 27.4316 13.0703C27.1777 13.0703 26.9766 12.9961 26.8281 12.8477C26.6797 12.6992 26.6055 12.5156 26.6055 12.2969ZM34.0703 4.41602H34.2461V5.57031H34.1465C33.6426 5.57031 33.207 5.64844 32.8398 5.80469C32.4766 5.96094 32.1777 6.17578 31.9434 6.44922C31.709 6.72266 31.5332 7.04297 31.416 7.41016C31.3027 7.77344 31.2461 8.16016 31.2461 8.57031V9.91211C31.2461 10.252 31.2832 10.5527 31.3574 10.8145C31.4316 11.0723 31.5352 11.2891 31.668 11.4648C31.8047 11.6367 31.9609 11.7676 32.1367 11.8574C32.3125 11.9473 32.502 11.9922 32.7051 11.9922C32.916 11.9922 33.1074 11.9492 33.2793 11.8633C33.4512 11.7734 33.5977 11.6504 33.7188 11.4941C33.8398 11.3379 33.9316 11.1523 33.9941 10.9375C34.0566 10.7227 34.0879 10.4883 34.0879 10.2344C34.0879 9.99219 34.0566 9.76562 33.9941 9.55469C33.9355 9.33984 33.8477 9.15234 33.7305 8.99219C33.6133 8.82812 33.4668 8.70117 33.291 8.61133C33.1191 8.51758 32.9199 8.4707 32.6934 8.4707C32.4121 8.4707 32.1562 8.53711 31.9258 8.66992C31.6992 8.80273 31.5156 8.97656 31.375 9.19141C31.2383 9.40234 31.1641 9.62695 31.1523 9.86523L30.6133 9.68945C30.6445 9.32617 30.7246 9 30.8535 8.71094C30.9863 8.42188 31.1602 8.17578 31.375 7.97266C31.5898 7.76953 31.8379 7.61523 32.1191 7.50977C32.4043 7.40039 32.7168 7.3457 33.0566 7.3457C33.4707 7.3457 33.8301 7.42383 34.1348 7.58008C34.4395 7.73633 34.6914 7.94922 34.8906 8.21875C35.0938 8.48438 35.2441 8.78906 35.3418 9.13281C35.4434 9.47266 35.4941 9.82812 35.4941 10.1992C35.4941 10.6094 35.4316 10.9922 35.3066 11.3477C35.1816 11.6992 34.998 12.0078 34.7559 12.2734C34.5176 12.5391 34.2266 12.7461 33.8828 12.8945C33.543 13.043 33.1562 13.1172 32.7227 13.1172C32.2656 13.1172 31.8574 13.0293 31.498 12.8535C31.1426 12.6777 30.8398 12.4355 30.5898 12.127C30.3438 11.8184 30.1562 11.4629 30.0273 11.0605C29.8984 10.6582 29.834 10.2324 29.834 9.7832V9.19727C29.834 8.54883 29.916 7.9375 30.0801 7.36328C30.2441 6.78516 30.4961 6.27539 30.8359 5.83398C31.1797 5.39258 31.6191 5.04688 32.1543 4.79688C32.6895 4.54297 33.3281 4.41602 34.0703 4.41602Z" fill="#101010"/>
</svg>
