<svg width="58" height="18" viewBox="0 0 58 18" fill="none" xmlns="http://www.w3.org/2000/svg">
<path d="M14.1887 6.51714L10.2215 5.94058L8.4481 2.34527C8.39966 2.24683 8.31998 2.16714 8.22154 2.11871C7.97466 1.99683 7.67466 2.09839 7.55123 2.34527L5.77779 5.94058L1.8106 6.51714C1.70123 6.53277 1.60123 6.58433 1.52466 6.66246C1.4321 6.75759 1.3811 6.88558 1.38286 7.0183C1.38461 7.15102 1.43899 7.27762 1.53404 7.37027L4.40435 10.1687L3.72623 14.1203C3.71032 14.2122 3.7205 14.3067 3.75559 14.3932C3.79068 14.4796 3.84929 14.5545 3.92477 14.6093C4.00025 14.6641 4.08958 14.6967 4.18263 14.7033C4.27568 14.71 4.36873 14.6904 4.45123 14.6468L7.99966 12.7812L11.5481 14.6468C11.645 14.6984 11.7575 14.7156 11.8653 14.6968C12.1372 14.65 12.32 14.3921 12.2731 14.1203L11.595 10.1687L14.4653 7.37027C14.5434 7.29371 14.595 7.19371 14.6106 7.08433C14.6528 6.81089 14.4622 6.55777 14.1887 6.51714Z" fill="#FEC30D"/>
<path d="M25.5215 9.95898V11.084H19.3691L19.3223 10.2344L23.002 4.46875H24.1328L22.9082 6.56641L20.793 9.95898H25.5215ZM24.4551 4.46875V13H23.043V4.46875H24.4551ZM26.6055 12.2969C26.6055 12.0781 26.6797 11.8945 26.8281 11.7461C26.9766 11.5938 27.1777 11.5176 27.4316 11.5176C27.6895 11.5176 27.8906 11.5938 28.0352 11.7461C28.1836 11.8945 28.2578 12.0781 28.2578 12.2969C28.2578 12.5156 28.1836 12.6992 28.0352 12.8477C27.8906 12.9961 27.6895 13.0703 27.4316 13.0703C27.1777 13.0703 26.9766 12.9961 26.8281 12.8477C26.6797 12.6992 26.6055 12.5156 26.6055 12.2969ZM30.9414 11.8867H31.0586C31.5977 11.8867 32.0469 11.8164 32.4062 11.6758C32.7695 11.5312 33.0586 11.332 33.2734 11.0781C33.4883 10.8242 33.6426 10.5254 33.7363 10.1816C33.8301 9.83789 33.877 9.46484 33.877 9.0625V7.5918C33.877 7.24414 33.8398 6.93945 33.7656 6.67773C33.6953 6.41211 33.5938 6.19141 33.4609 6.01562C33.332 5.83594 33.1816 5.70117 33.0098 5.61133C32.8418 5.52148 32.6602 5.47656 32.4648 5.47656C32.25 5.47656 32.0566 5.52539 31.8848 5.62305C31.7168 5.7168 31.5742 5.84766 31.457 6.01562C31.3438 6.17969 31.2559 6.37305 31.1934 6.5957C31.1348 6.81445 31.1055 7.04883 31.1055 7.29883C31.1055 7.5332 31.1328 7.75977 31.1875 7.97852C31.2461 8.19336 31.332 8.38477 31.4453 8.55273C31.5586 8.7207 31.7012 8.85352 31.873 8.95117C32.0449 9.04883 32.2461 9.09766 32.4766 9.09766C32.6953 9.09766 32.8965 9.05664 33.0801 8.97461C33.2637 8.88867 33.4238 8.77344 33.5605 8.62891C33.6973 8.48438 33.8047 8.32227 33.8828 8.14258C33.9609 7.96289 34.0039 7.7793 34.0117 7.5918L34.5508 7.75586C34.5508 8.05273 34.4883 8.3457 34.3633 8.63477C34.2422 8.91992 34.0723 9.18164 33.8535 9.41992C33.6387 9.6543 33.3867 9.8418 33.0977 9.98242C32.8125 10.123 32.502 10.1934 32.166 10.1934C31.7598 10.1934 31.4004 10.1172 31.0879 9.96484C30.7793 9.80859 30.5215 9.59766 30.3145 9.33203C30.1113 9.06641 29.959 8.76172 29.8574 8.41797C29.7559 8.07422 29.7051 7.71289 29.7051 7.33398C29.7051 6.92383 29.7676 6.53906 29.8926 6.17969C30.0176 5.82031 30.1992 5.50391 30.4375 5.23047C30.6758 4.95312 30.9648 4.73828 31.3047 4.58594C31.6484 4.42969 32.0371 4.35156 32.4707 4.35156C32.9316 4.35156 33.3359 4.44141 33.6836 4.62109C34.0312 4.80078 34.3242 5.04883 34.5625 5.36523C34.8008 5.68164 34.9805 6.04883 35.1016 6.4668C35.2227 6.88477 35.2832 7.33398 35.2832 7.81445V8.3125C35.2832 8.81641 35.2383 9.30273 35.1484 9.77148C35.0586 10.2363 34.9121 10.668 34.709 11.0664C34.5098 11.4609 34.2461 11.8086 33.918 12.1094C33.5938 12.4062 33.1953 12.6387 32.7227 12.8066C32.2539 12.9707 31.7031 13.0527 31.0703 13.0527H30.9414V11.8867ZM40.416 4.46875L37.0938 13.7324H35.9863L39.3145 4.46875H40.416ZM42.7949 9.0332L41.6699 8.75781L42.1328 4.46875H46.7324V5.66406H43.3047L43.0703 7.75586C43.2031 7.67773 43.3867 7.60156 43.6211 7.52734C43.8555 7.44922 44.123 7.41016 44.4238 7.41016C44.8262 7.41016 45.1855 7.47656 45.502 7.60938C45.8223 7.73828 46.0938 7.92773 46.3164 8.17773C46.5391 8.42383 46.709 8.72461 46.8262 9.08008C46.9434 9.43164 47.002 9.82812 47.002 10.2695C47.002 10.6641 46.9434 11.0332 46.8262 11.377C46.7129 11.7207 46.541 12.0234 46.3105 12.2852C46.0801 12.5469 45.7891 12.752 45.4375 12.9004C45.0898 13.0449 44.6777 13.1172 44.2012 13.1172C43.8457 13.1172 43.5039 13.0664 43.1758 12.9648C42.8516 12.8594 42.5605 12.7051 42.3027 12.502C42.0449 12.2949 41.8379 12.041 41.6816 11.7402C41.5254 11.4355 41.4355 11.0859 41.4121 10.6914H42.7949C42.8301 10.9688 42.9062 11.2051 43.0234 11.4004C43.1445 11.5918 43.3047 11.7383 43.5039 11.8398C43.7031 11.9414 43.9336 11.9922 44.1953 11.9922C44.4336 11.9922 44.6387 11.9512 44.8105 11.8691C44.9824 11.7832 45.125 11.6621 45.2383 11.5059C45.3555 11.3457 45.4414 11.1582 45.4961 10.9434C45.5547 10.7285 45.584 10.4902 45.584 10.2285C45.584 9.97852 45.5508 9.75 45.4844 9.54297C45.4219 9.33594 45.3262 9.15625 45.1973 9.00391C45.0723 8.85156 44.9141 8.73438 44.7227 8.65234C44.5312 8.56641 44.3105 8.52344 44.0605 8.52344C43.7246 8.52344 43.4668 8.57227 43.2871 8.66992C43.1113 8.76758 42.9473 8.88867 42.7949 9.0332ZM48.2734 12.2969C48.2734 12.0781 48.3477 11.8945 48.4961 11.7461C48.6445 11.5938 48.8457 11.5176 49.0996 11.5176C49.3574 11.5176 49.5586 11.5938 49.7031 11.7461C49.8516 11.8945 49.9258 12.0781 49.9258 12.2969C49.9258 12.5156 49.8516 12.6992 49.7031 12.8477C49.5586 12.9961 49.3574 13.0703 49.0996 13.0703C48.8457 13.0703 48.6445 12.9961 48.4961 12.8477C48.3477 12.6992 48.2734 12.5156 48.2734 12.2969ZM57.0332 8.01953V9.41406C57.0332 10.082 56.9668 10.6523 56.834 11.125C56.7051 11.5938 56.5176 11.9746 56.2715 12.2676C56.0254 12.5605 55.7305 12.7754 55.3867 12.9121C55.0469 13.0488 54.666 13.1172 54.2441 13.1172C53.9082 13.1172 53.5957 13.0742 53.3066 12.9883C53.0215 12.9023 52.7637 12.7676 52.5332 12.584C52.3027 12.4004 52.1055 12.1641 51.9414 11.875C51.7812 11.582 51.6562 11.2324 51.5664 10.8262C51.4805 10.4199 51.4375 9.94922 51.4375 9.41406V8.01953C51.4375 7.34766 51.5039 6.78125 51.6367 6.32031C51.7695 5.85547 51.959 5.47852 52.2051 5.18945C52.4512 4.89648 52.7441 4.68359 53.084 4.55078C53.4277 4.41797 53.8105 4.35156 54.2324 4.35156C54.5723 4.35156 54.8848 4.39453 55.1699 4.48047C55.459 4.5625 55.7168 4.69336 55.9434 4.87305C56.1738 5.05273 56.3691 5.28711 56.5293 5.57617C56.6934 5.86133 56.8184 6.20703 56.9043 6.61328C56.9902 7.01562 57.0332 7.48438 57.0332 8.01953ZM55.6211 9.61328V7.80859C55.6211 7.46875 55.6016 7.16992 55.5625 6.91211C55.5234 6.65039 55.4648 6.42969 55.3867 6.25C55.3125 6.06641 55.2188 5.91797 55.1055 5.80469C54.9922 5.6875 54.8633 5.60352 54.7188 5.55273C54.5742 5.49805 54.4121 5.4707 54.2324 5.4707C54.0137 5.4707 53.8184 5.51367 53.6465 5.59961C53.4746 5.68164 53.3301 5.81445 53.2129 5.99805C53.0957 6.18164 53.0059 6.42383 52.9434 6.72461C52.8848 7.02148 52.8555 7.38281 52.8555 7.80859V9.61328C52.8555 9.95703 52.875 10.2598 52.9141 10.5215C52.9531 10.7832 53.0117 11.0078 53.0898 11.1953C53.168 11.3789 53.2617 11.5312 53.3711 11.6523C53.4844 11.7695 53.6133 11.8555 53.7578 11.9102C53.9062 11.9648 54.0684 11.9922 54.2441 11.9922C54.4668 11.9922 54.6641 11.9492 54.8359 11.8633C55.0078 11.7773 55.1523 11.6406 55.2695 11.4531C55.3867 11.2617 55.4746 11.0137 55.5332 10.709C55.5918 10.4043 55.6211 10.0391 55.6211 9.61328Z" fill="#101010"/>
</svg>
