<svg width="19" height="14" viewBox="0 0 19 14" fill="none" xmlns="http://www.w3.org/2000/svg">
<path d="M15.7604 7.52718C15.6191 7.52718 15.4778 7.48304 15.3542 7.38592C11.796 4.64003 7.19602 4.64003 3.63784 7.38592C3.34648 7.60665 2.9315 7.55367 2.71077 7.27114C2.49004 6.97977 2.54302 6.5648 2.82555 6.34407C6.87817 3.20969 12.1139 3.20969 16.1577 6.34407C16.449 6.5648 16.502 6.97977 16.2725 7.27114C16.1577 7.43889 15.9634 7.52718 15.7604 7.52718Z" fill="#101010"/>
<path d="M18.3292 4.45425C18.1879 4.45425 18.0467 4.41011 17.9231 4.31299C12.8021 0.357493 6.18903 0.357493 1.0769 4.31299C0.785539 4.53372 0.370565 4.48074 0.149834 4.19821C-0.0797254 3.91567 -0.0267501 3.49187 0.264614 3.27114C5.87117 -1.06401 13.12 -1.06401 18.7354 3.27114C19.0267 3.49187 19.0797 3.90684 18.8501 4.19821C18.7265 4.36596 18.5235 4.45425 18.3292 4.45425Z" fill="#101010"/>
<path d="M14.0997 10.7494C13.9585 10.7494 13.8172 10.7052 13.6936 10.6081C11.1508 8.63917 7.85746 8.63917 5.30581 10.6081C5.01444 10.8288 4.59947 10.7758 4.37874 10.4933C4.15801 10.2019 4.21098 9.78697 4.49352 9.56624C7.53077 7.21767 11.4598 7.21767 14.497 9.56624C14.7884 9.78697 14.8414 10.2019 14.6118 10.4933C14.4882 10.6611 14.294 10.7494 14.0997 10.7494Z" fill="#101010"/>
<path d="M11.7956 13.9802C11.6543 13.9802 11.5131 13.936 11.3894 13.8389C10.2416 12.9472 8.74951 12.9472 7.60171 13.8389C7.31034 14.0596 6.89537 14.0067 6.67464 13.7241C6.45391 13.4328 6.50688 13.0178 6.78942 12.7971C8.43165 11.5257 10.5507 11.5257 12.1929 12.7971C12.4843 13.0178 12.5372 13.4328 12.3077 13.7241C12.1929 13.8831 11.9987 13.9802 11.7956 13.9802Z" fill="#101010"/>
</svg>
